<svg xmlns="http://www.w3.org/2000/svg" xmlns:xlink="http://www.w3.org/1999/xlink" width="17" height="16" viewBox="0 0 17 16"><defs><path id="zwp5a" d="M1102.657 23.506c0 .682.971.682.971 0 0-.683-.97-.683-.97 0zm-7.285 0c0 .682.971.682.971 0 0-.683-.971-.683-.971 0zm11.519-2.495l-1.483 6.09c-.27 1.107-1.241 1.886-2.356 1.886h-7.104c-1.115 0-2.086-.78-2.356-1.886l-1.483-6.09zM1095.948 30h7.104c1.559.001 2.92-1.09 3.301-2.65l1.632-6.72a.527.527 0 0 0-.09-.44.48.48 0 0 0-.381-.192h-3.266l-.045-.186-1.317-5.424a.486.486 0 0 0-.591-.365.512.512 0 0 0-.352.623l1.305 5.352h-7.496l.073-.3 1.231-5.063a.508.508 0 0 0-.35-.62.485.485 0 0 0-.591.362l-1.363 5.62h-3.266a.48.48 0 0 0-.38.192.528.528 0 0 0-.091.441l1.632 6.72c.38 1.56 1.742 2.651 3.301 2.65z"/></defs><g><g transform="translate(-1091 -14)"><use fill="#fff" xlink:href="#zwp5a"/></g></g></svg>