<svg version="1.1" id="Слой_1" xmlns="http://www.w3.org/2000/svg" xmlns:xlink="http://www.w3.org/1999/xlink" x="0px" y="0px"
	 viewBox="0 0 45 42" style="enable-background:new 0 0 45 42;" xml:space="preserve">
	<path transform="translate(-698 -1389)" d="M735,1421.8c-0.6,0-1.1-0.5-1.1-1.1v-19.1c0-0.6,0.5-1.1,1.1-1.1c0.6,0,1.1,0.5,1.1,1.1l0,0v19.1
				C736.1,1421.3,735.6,1421.8,735,1421.8L735,1421.8z M729.2,1421.8c-0.6,0-1.1-0.5-1.1-1.1v-19.1c0-0.6,0.5-1.1,1.1-1.1
				c0.6,0,1.1,0.5,1.1,1.1l0,0v19.1C730.3,1421.3,729.8,1421.8,729.2,1421.8L729.2,1421.8z M723.4,1421.8c-0.6,0-1.1-0.5-1.1-1.1
				v-19.1c0-0.6,0.5-1.1,1.1-1.1c0.6,0,1.1,0.5,1.1,1.1l0,0v19.1C724.5,1421.3,724,1421.8,723.4,1421.8L723.4,1421.8z M717.6,1421.8
				c-0.6,0-1.1-0.5-1.1-1.1v-19.1c0-0.6,0.5-1.1,1.1-1.1c0.6,0,1.1,0.5,1.1,1.1l0,0v19.1C718.8,1421.3,718.2,1421.8,717.6,1421.8
				L717.6,1421.8z M711.8,1421.8c-0.6,0-1.1-0.5-1.1-1.1v-19.1c0-0.6,0.5-1.1,1.1-1.1c0.6,0,1.1,0.5,1.1,1.1v19.1
				C713,1421.3,712.5,1421.8,711.8,1421.8L711.8,1421.8z M706,1421.8c-0.6,0-1.1-0.5-1.1-1.1v-19.1c0-0.6,0.5-1.1,1.1-1.1
				c0.6,0,1.1,0.5,1.1,1.1v19.1C707.2,1421.3,706.7,1421.8,706,1421.8z M737.8,1398.8h-34.5c-0.6,0-1.1-0.5-1.1-1.1
				c0-0.5,0.3-0.9,0.7-1l17.3-7.5c0.3-0.1,0.6-0.1,0.9,0l17.2,7.4c0.6,0.2,0.9,0.8,0.7,1.4C738.7,1398.5,738.3,1398.8,737.8,1398.8
				L737.8,1398.8z M708.8,1396.5h23.5l-11.8-5.1L708.8,1396.5z M703,1426.3c-0.6,0-1.2-0.5-1.2-1.1c0-0.6,0.5-1.2,1.1-1.2
				c0,0,0.1,0,0.1,0H738c0.6,0,1.2,0.4,1.2,1.1s-0.4,1.2-1.1,1.2c0,0-0.1,0-0.1,0H703z M741.9,1431h-42.7c-0.6,0-1.2-0.5-1.2-1.1
				c0-0.6,0.5-1.2,1.1-1.2c0,0,0.1,0,0.1,0h42.7c0.6,0,1.2,0.5,1.2,1.1c0,0.6-0.5,1.2-1.1,1.2C741.9,1431,741.9,1431,741.9,1431z"/>
</svg>
