<?xml version="1.0" encoding="utf-8"?>
<!-- Generator: Adobe Illustrator 22.0.1, SVG Export Plug-In . SVG Version: 6.00 Build 0)  -->
<svg version="1.1" id="Слой_1" xmlns="http://www.w3.org/2000/svg" xmlns:xlink="http://www.w3.org/1999/xlink" x="0px" y="0px"
	 viewBox="0 0 52 36" style="enable-background:new 0 0 52 36;" xml:space="preserve">
<style type="text/css">
	.st0{fill:#FFFFFF;}
</style>
<g>
	<g transform="translate(-353 -627)">
		<g>
			<path id="ii5za" class="st0" d="M402.6,635.4l-47.2,0v-1.1c0-2.7,2.2-4.8,4.8-4.8h37.6c1.3,0,2.5,0.5,3.4,1.4
				c0.9,0.9,1.4,2.1,1.4,3.4V635.4z M402.6,642.3h-47.2v-4.6h47.2V642.3z M402.6,655.7c0,1.3-0.5,2.5-1.4,3.4
				c-0.9,0.9-2.1,1.4-3.4,1.4h-37.6c-2.7,0-4.8-2.2-4.8-4.8v-11h47.2V655.7z M405,655.7v-21.5c0-4-3.2-7.3-7.2-7.3h-37.6
				c-4,0-7.2,3.2-7.2,7.3v21.5c0,4,3.2,7.3,7.2,7.3h37.6C401.8,663,405,659.8,405,655.7L405,655.7z"/>
		</g>
	</g>
</g>
</svg>
