<svg version="1.1" id="Слой_1" xmlns="http://www.w3.org/2000/svg" xmlns:xlink="http://www.w3.org/1999/xlink" x="0px" y="0px"
	 viewBox="0 0 35 35" style="enable-background:new 0 0 35 35;" xml:space="preserve">
	<path transform="translate(-1042 -1701)" d="M1052.1,1728.8c0.2,0.6,0.5,1.2,0.8,1.8c0.6,1.2,1.3,2.2,2.1,3.1c-2.9-0.9-5.5-2.6-7.5-4.9
	L1052.1,1728.8z M1058.7,1734.3c-1.6-0.4-3.2-1.9-4.4-4.4c-0.2-0.4-0.4-0.7-0.5-1.1h4.9V1734.3z M1065.2,1728.8
	c-0.2,0.4-0.3,0.8-0.5,1.1c-1.2,2.5-2.8,4-4.4,4.4v-5.5L1065.2,1728.8z M1071.6,1728.8c-2,2.3-4.6,4-7.5,4.9
	c0.8-0.8,1.5-1.9,2.1-3.1c0.3-0.6,0.6-1.2,0.8-1.8H1071.6L1071.6,1728.8z M1050.6,1722.5c0.2,1.7,0.5,3.3,1,4.8h-5.3
	c-1-1.5-1.7-3.1-2.1-4.8H1050.6z M1058.7,1727.3h-5.5c-0.5-1.6-0.8-3.2-1-4.8h6.5L1058.7,1727.3z M1066.8,1722.5
	c-0.2,1.6-0.5,3.2-1,4.8h-5.5v-4.8H1066.8z M1074.9,1722.5c-0.4,1.7-1.1,3.3-2.1,4.8h-5.3c0.4-1.5,0.8-3.1,1-4.8H1074.9z
	 M1050.4,1718.5c0,0.8,0,1.6,0.1,2.4h-6.7c-0.1-0.8-0.2-1.6-0.2-2.4c0-0.8,0.1-1.6,0.2-2.4h6.7
	C1050.4,1716.9,1050.4,1717.7,1050.4,1718.5L1050.4,1718.5z M1058.7,1720.9h-6.7c-0.1-0.8-0.1-1.6-0.1-2.4c0-0.8,0-1.6,0.1-2.4
	h6.7V1720.9z M1067.1,1718.5c0,0.8,0,1.6-0.1,2.4h-6.7v-4.8h6.7C1067,1716.9,1067.1,1717.7,1067.1,1718.5L1067.1,1718.5z
	 M1075.4,1718.5c0,0.8-0.1,1.6-0.2,2.4h-6.7c0.1-0.8,0.1-1.6,0.1-2.4c0-0.8,0-1.6-0.1-2.4h6.7
	C1075.3,1716.9,1075.4,1717.7,1075.4,1718.5L1075.4,1718.5z M1051.5,1709.8c-0.4,1.5-0.7,3.1-0.9,4.8h-6.5
	c0.4-1.7,1.2-3.3,2.1-4.8H1051.5z M1058.7,1714.5h-6.5c0.2-1.6,0.5-3.2,1-4.8h5.5V1714.5z M1065.8,1709.8c0.5,1.6,0.8,3.2,1,4.8
	h-6.5v-4.8H1065.8z M1072.8,1709.8c1,1.5,1.7,3.1,2.1,4.8h-6.5c-0.2-1.7-0.5-3.3-0.9-4.8H1072.8z M1054.9,1703.3L1054.9,1703.3
	L1054.9,1703.3z M1054.9,1703.3c-0.8,0.8-1.5,1.9-2.1,3.1c-0.3,0.6-0.6,1.2-0.8,1.8h-4.6
	C1049.4,1705.9,1052,1704.2,1054.9,1703.3L1054.9,1703.3z M1064.1,1703.3c2.9,0.9,5.5,2.6,7.5,4.9h-4.6c-0.2-0.6-0.5-1.2-0.8-1.8
	C1065.6,1705.2,1064.9,1704.1,1064.1,1703.3L1064.1,1703.3z M1058.7,1708.2h-4.9c0.2-0.4,0.3-0.8,0.5-1.1c1.2-2.5,2.8-4,4.4-4.3
	V1708.2z M1060.3,1702.7c1.6,0.4,3.2,1.9,4.4,4.3c0.2,0.4,0.3,0.7,0.5,1.1h-4.9L1060.3,1702.7z M1042,1718.5
	c0,9.7,7.8,17.5,17.5,17.5s17.5-7.8,17.5-17.5s-7.8-17.5-17.5-17.5S1042,1708.8,1042,1718.5z"/>
</svg>
