<svg version="1.1" id="Слой_1" xmlns="http://www.w3.org/2000/svg" xmlns:xlink="http://www.w3.org/1999/xlink" x="0px" y="0px"
	 viewBox="0 0 12 12">
	<path transform="translate(-1188 -17)" class="st0" d="M1192.9,25.9c-2.2,0-3.9-1.7-3.9-3.9c0,0,0,0,0,0c0-2.2,1.7-3.9,3.9-3.9c0,0,0,0,0,0
		c2.2,0,3.9,1.7,3.9,3.9c0,0,0,0,0,0C1196.9,24.1,1195.1,25.9,1192.9,25.9C1192.9,25.9,1192.9,25.9,1192.9,25.9z M1196.9,24.8
		c0.6-0.8,0.9-1.8,0.9-2.9c0-2.7-2.2-4.9-4.9-4.9c0,0,0,0,0,0c-2.7,0-4.9,2.2-4.9,4.9c0,0,0,0,0,0c0,2.7,2.2,4.9,4.9,4.9
		c0,0,0,0,0,0c1,0,2.1-0.3,2.9-0.9l0.2-0.2l3.1,3.1c0.1,0.1,0.2,0.1,0.3,0.1c0.1,0,0.2,0,0.3-0.1c0.2-0.2,0.2-0.5,0-0.7
		c0,0,0,0,0,0l-3.1-3.1L1196.9,24.8z"/>
</svg>
