<?xml version="1.0" encoding="utf-8"?>
<!-- Generator: Adobe Illustrator 22.0.1, SVG Export Plug-In . SVG Version: 6.00 Build 0)  -->
<svg version="1.1" id="Слой_1" xmlns="http://www.w3.org/2000/svg" xmlns:xlink="http://www.w3.org/1999/xlink" x="0px" y="0px"
	 viewBox="0 0 38.7 45" style="enable-background:new 0 0 38.7 45;" xml:space="preserve">
<g>
	<g transform="translate(-827 -2956)">
		<g>
			<path id="nzvxa" class="st0" d="M846.7,2997.2c-0.2,0.1-0.5,0.1-0.7,0c-13.3-6.8-15.7-21.2-16-29.1c0-0.3,0.2-0.6,0.4-0.7
				l15.6-7.5c0.2-0.1,0.4-0.1,0.6,0l15.6,7.5c0.3,0.1,0.4,0.4,0.4,0.7C862.4,2976,859.9,2990.4,846.7,2997.2L846.7,2997.2z
				 M865.3,2965.1l-18.6-9c-0.2-0.1-0.4-0.1-0.6,0l-18.6,9c-0.3,0.1-0.4,0.4-0.4,0.7c0,16.9,6.9,29.8,19,35.2c0.1,0,0.2,0.1,0.3,0.1
				c0.1,0,0.2,0,0.3-0.1c12.1-5.4,19-18.2,19-35.2C865.7,2965.5,865.5,2965.2,865.3,2965.1L865.3,2965.1z"/>
		</g>
	</g>
</g>
</svg>
