<svg version="1.1" id="Слой_1" xmlns="http://www.w3.org/2000/svg" xmlns:xlink="http://www.w3.org/1999/xlink" x="0px" y="0px"
	 viewBox="0 0 29 44" style="enable-background:new 0 0 29 44;" xml:space="preserve">
<g>
	<g transform="translate(-706 -623)">
		<g>
			<path d="M726.1,666.5c-0.7,0.7-1.9,0.7-2.6,0c-0.4-0.4-0.5-0.8-0.5-1.4c0-0.5,0.2-1,0.5-1.4
				c10.4-10.2,10.5-27,0.3-37.4c-0.1-0.1-0.2-0.2-0.3-0.3c-0.7-0.7-0.7-1.9,0-2.6c0,0,0,0,0,0c0.7-0.7,1.9-0.7,2.6,0
				c5.7,5.6,8.9,13.3,8.9,21.3C735.1,653,731.9,660.7,726.1,666.5L726.1,666.5z M715,660.4c-0.4-0.4-0.5-0.8-0.5-1.4
				c0-0.5,0.2-1,0.5-1.4c7.2-7.1,7.2-18.5,0-25.6c-0.7-0.7-0.7-1.9,0-2.6c0,0,0,0,0,0c0.7-0.7,1.9-0.7,2.6,0
				c8.5,8.3,8.6,22,0.3,30.5c-0.1,0.1-0.2,0.2-0.3,0.3C716.9,661.1,715.7,661.2,715,660.4L715,660.4z M706.6,654.4L706.6,654.4
				c-0.4-0.4-0.6-0.8-0.6-1.4c0-0.5,0.2-1,0.5-1.4c3.7-3.7,3.7-9.7,0-13.5c-0.7-0.7-0.7-1.9,0-2.6c0,0,0,0,0,0
				c0.7-0.7,1.9-0.7,2.6,0c5.1,5.1,5.1,13.6,0,18.7C708.4,655.1,707.3,655.1,706.6,654.4L706.6,654.4z"/>
		</g>
	</g>
</g>
</svg>
