<?xml version="1.0" encoding="utf-8"?>
<!-- Generator: Adobe Illustrator 22.0.1, SVG Export Plug-In . SVG Version: 6.00 Build 0)  -->
<svg version="1.1" id="Слой_1" xmlns="http://www.w3.org/2000/svg" xmlns:xlink="http://www.w3.org/1999/xlink" x="0px" y="0px"
	 viewBox="0 0 49 35" style="enable-background:new 0 0 49 35;" xml:space="preserve">
			<path transform="translate(-357 -1700)" d="M403.7,1718.7h-9.3c0,0,0-7,0-7c0,0,4.6,0,5.6,0l3.3,5.4C403.5,1717.5,403.7,1718.2,403.7,1718.7
				L403.7,1718.7z M373.2,1728c-0.6-3.2-3.7-5.2-6.9-4.5c-2.3,0.5-4.1,2.3-4.5,4.5h-2.4c0,0,0-25.7,0-25.7l25.7,0v25.7H373.2z
				 M401.2,1728c-0.6-3.2-3.7-5.2-6.9-4.6c-2.3,0.5-4.1,2.3-4.6,4.5h-2.5v-21h9.3c0.2,0,0.6,0.2,0.8,0.4l1.1,1.9h-4.3
				c-1.3,0-2.3,1-2.3,2.3c0,0,0,0,0,0v7c0,1.3,1,2.3,2.3,2.3c0,0,0,0,0,0h9.3v7C403.7,1728,402.2,1728,401.2,1728L401.2,1728z
				 M361.8,1730.3c0.6,3.2,3.7,5.2,6.9,4.5c2.3-0.5,4.1-2.3,4.5-4.5h16.6c0.6,3.2,3.7,5.2,6.9,4.5c2.3-0.5,4.1-2.3,4.5-4.5h2.4
				c1.3,0,2.3-1,2.3-2.3c0,0,0,0,0,0v-9.3c0-0.9-0.3-2-0.8-2.8l-5.8-9.7c-0.5-0.9-1.7-1.6-2.8-1.6h-9.3v-2.3c0-1.3-1-2.3-2.3-2.3
				h-25.7c-1.3,0-2.3,1-2.3,2.3v25.7c0,1.3,1.1,2.3,2.3,2.3L361.8,1730.3z"/>
</svg>
