<?xml version="1.0" encoding="UTF-8"?>
<svg width="93px" height="27px" viewBox="0 0 93 27" version="1.1" xmlns="http://www.w3.org/2000/svg" xmlns:xlink="http://www.w3.org/1999/xlink">
    <!-- Generator: Sketch 52.1 (67048) - http://www.bohemiancoding.com/sketch -->
    <title>logo</title>
    <desc>Created with Sketch.</desc>
    <g id="Page-1" stroke="none" stroke-width="1" fill="none" fill-rule="evenodd">
        <g id="Main" transform="translate(-240.000000, -9.000000)">
            <g id="Group-30">
                <g id="logo" transform="translate(240.000000, 9.000000)">
                    <path d="M23.0462718,13.5294796 C23.0462718,8.45031122 21.9967944,4.67403061 20.9679443,2.19237245 C20.1537282,0.228397959 17.7066202,-0.480214286 15.949547,0.739607143 L1.42243902,10.8239694 C-0.474146341,12.1406327 -0.474146341,14.9184643 1.42243902,16.2351276 L15.949547,26.3194898 C17.7066202,27.5391735 20.1537282,26.8305612 20.9679443,24.8667245 C21.9967944,22.3849286 23.0462718,18.608648 23.0462718,13.5294796" id="Fill-1" fill="#52439A"></path>
                    <path d="M20.9679303,2.19233112 C20.9325296,2.10706071 20.8930871,2.02509643 20.8516934,1.94450969 C20.8045854,1.97054541 20.7580348,1.9987852 20.7127387,2.03019337 L5.95050871,12.2777954 C5.07301742,12.8869485 5.07301742,14.1720658 5.95050871,14.7810811 L20.7127387,25.0289587 C20.7580348,25.0602291 20.8045854,25.0884689 20.8516934,25.1145046 C20.8930871,25.0340556 20.9325296,24.9519536 20.9679303,24.8666832 C21.9967805,22.3848872 23.0462578,18.6086066 23.0462578,13.5294383 C23.0462578,8.4502699 21.9967805,4.67412704 20.9679303,2.19233112" id="Fill-4" fill="#EC4B23"></path>
                    <path d="M15.9494913,0.739634694 L10.5552056,4.48423163 C8.69443902,5.81081327 8.70544948,8.56109388 10.5900488,9.86935408 L22.7177143,18.2881194 C22.9210592,16.8534 23.046216,15.2699051 23.046216,13.5295071 C23.046216,8.45033878 21.996878,4.67405816 20.9678885,2.19226224 C20.1538118,0.22842551 17.7067038,-0.48004898 15.9494913,0.739634694" id="Fill-6" fill="#6FCBDC"></path>
                    <path d="M10.5901045,22.5989862 L15.9508014,26.3203026 C17.7078746,27.5387464 20.1538676,26.8301342 20.9679443,24.8667107 C21.9967944,22.3849148 23.0462718,18.6086342 23.0462718,13.5294658 C23.0462718,11.7885168 22.9209756,10.2044709 22.7174913,8.76933827 L10.5901045,17.1879658 C8.69351916,18.5044913 8.69351916,21.282323 10.5901045,22.5989862" id="Fill-9" fill="#6FCBDC"></path>
                    <path d="M23.0356655,12.7056352 C23.0337143,12.6224311 23.0314843,12.5397781 23.0289756,12.4574005 C23.023122,12.2561403 23.0151777,12.0576352 23.0059791,11.8606454 C23.0015192,11.767523 22.9976167,11.6738495 22.9924599,11.5816913 C22.9811707,11.3750587 22.9676516,11.1715944 22.9530174,10.9700587 C22.9427038,10.830375 22.9314146,10.6922066 22.9195679,10.5548648 C22.9124599,10.4717985 22.9049338,10.3896964 22.8972683,10.3074566 C22.8476516,9.777375 22.7875819,9.26382398 22.7174774,8.76942092 L10.5900906,17.1879107 C10.3949686,17.323324 10.2211707,17.4749923 10.0661882,17.6382321 L20.7127387,25.0289311 C20.7580348,25.0603393 20.8045854,25.0885791 20.8516934,25.114477 C20.8930871,25.0340281 20.9325296,24.951926 20.9679303,24.8666556 C21.9967805,22.3849974 23.0462578,18.6087168 23.0462578,13.5294107 C23.0462578,13.2503189 23.0417979,12.976875 23.0356655,12.7056352" id="Fill-11" fill="#F5881F"></path>
                    <path d="M20.7127944,2.03015204 L10.0670801,9.42016224 C10.2219233,9.58298878 10.3954425,9.73424388 10.5901463,9.86938163 L22.7176725,18.2881469 C22.7176725,18.2880092 22.7176725,18.2878714 22.7178118,18.2877337 C22.787777,17.7937439 22.8477073,17.2808816 22.8971847,16.751351 C22.9049895,16.6689735 22.9126551,16.5865959 22.9196237,16.5031163 C22.9314704,16.3661878 22.9427596,16.2282949 22.9529338,16.0890245 C22.9675679,15.8881776 22.9809477,15.6855398 22.9922369,15.4797337 C22.9973937,15.3868867 23.0014355,15.2923867 23.0058955,15.1987133 C23.0150941,15.0015857 23.0230383,14.8028051 23.0290314,14.6012694 C23.0315401,14.5190296 23.03377,14.436652 23.0357213,14.3535857 C23.0418537,14.0823459 23.0463136,13.8087643 23.0463136,13.5295347 C23.0463136,8.45022857 21.9968362,4.67408571 20.9679861,2.1922898 C20.9325854,2.10701939 20.8930035,2.0250551 20.8517491,1.94446837 C20.8045017,1.97050408 20.7580906,1.99874388 20.7127944,2.03015204" id="Fill-13" fill="#F5881F"></path>
                    <path d="M23.0356658,12.7054974 C23.0337145,12.6222934 23.0314846,12.5397781 23.0289759,12.4574005 C23.0231222,12.2561403 23.015178,12.0576352 23.0059794,11.8606454 C23.0015194,11.767523 22.997617,11.6738495 22.9924602,11.5816913 C22.9888365,11.5140536 22.9836797,11.4483444 22.9794985,11.3813954 C22.9711362,11.2435026 22.9629132,11.1056097 22.9530177,10.9697832 C22.9427041,10.8302372 22.9314149,10.6922066 22.9195682,10.5548648 C22.9124602,10.4717985 22.9049341,10.3895587 22.8972686,10.3074566 C22.8476518,9.777375 22.7875821,9.26382398 22.7174776,8.76942092 L15.8614497,13.5287219 L22.7177564,18.288023 C22.7177564,18.2878852 22.7177564,18.2876097 22.7177564,18.2874719 C22.7877215,17.7937577 22.8476518,17.2810332 22.8972686,16.7515026 C22.9049341,16.6688495 22.9125996,16.5864719 22.9197076,16.5029923 C22.9314149,16.3660638 22.9427041,16.2284464 22.9530177,16.0890383 C22.9578957,16.021125 22.9616588,15.9514209 22.9662581,15.8829566 C22.9753173,15.7491964 22.9847947,15.6159872 22.9923208,15.4797474 C22.9974776,15.3869005 23.0015194,15.2924005 23.0059794,15.198727 C23.0111362,15.0876964 23.0147598,14.9744617 23.018941,14.8621913 C23.0221466,14.7748546 23.0264672,14.6890332 23.0291152,14.6010077 C23.0314846,14.5190434 23.0337145,14.4366658 23.0356658,14.3540128 C23.0417982,14.0824974 23.0462581,13.8087781 23.0462581,13.5294107 C23.0462581,13.2503189 23.0417982,12.976875 23.0356658,12.7054974" id="Fill-15" fill="#F9D009"></path>
                    <path d="M20.7127944,2.03015204 C20.7580906,1.99874388 20.8045017,1.97050408 20.8517491,1.94446837 C20.8930035,2.0250551 20.9325854,2.10701939 20.9679861,2.1922898 C20.15377,0.228453061 17.706662,-0.480159184 15.9494495,0.739662245 L10.5553031,4.48412143 C8.88673171,5.67363673 8.72436237,8.00734592 10.0670801,9.42016224 L20.7127944,2.03015204 Z" id="Fill-17" fill="#4D87C6"></path>
                    <path d="M23.0356655,14.3535857 C23.0419373,14.0824837 23.0462578,13.8087643 23.0462578,13.5295347 C23.0462578,13.8087643 23.0417979,14.0823459 23.0356655,14.3535857" id="Fill-20" fill="#4D72B7"></path>
                    <path d="M22.7177143,18.2880781 C22.7177143,18.2879403 22.7177143,18.2878026 22.7177143,18.2876648 C22.7177143,18.2878026 22.7177143,18.2879403 22.7177143,18.2880781" id="Fill-22" fill="#4D72B7"></path>
                    <path d="M23.0059233,15.1986857 C23.0152613,15.0016959 23.0230662,14.8026398 23.0290592,14.6012418 C23.0230662,14.8027776 23.015122,15.0015582 23.0059233,15.1986857" id="Fill-24" fill="#4D72B7"></path>
                    <path d="M22.8972404,16.7513786 C22.9050453,16.669001 22.9125714,16.5864857 22.9196794,16.5031439 C22.9125714,16.5866235 22.9049059,16.6688633 22.8972404,16.7513786" id="Fill-26" fill="#4D72B7"></path>
                    <path d="M22.9529756,16.0889832 C22.9677491,15.8884117 22.9808502,15.6853607 22.9922787,15.4796923 C22.9809895,15.6854985 22.9676098,15.8881362 22.9529756,16.0889832" id="Fill-28" fill="#4D72B7"></path>
                    <path d="M22.9196237,10.5548235 C22.9125157,10.4717571 22.9049895,10.3896551 22.8971847,10.3074153 C22.9048502,10.3896551 22.9125157,10.4717571 22.9196237,10.5548235" id="Fill-30" fill="#4D72B7"></path>
                    <path d="M22.992446,11.5816638 C22.9810174,11.3753066 22.967777,11.1714291 22.9530035,10.9701689 C22.9676376,11.1715668 22.9811568,11.3750311 22.992446,11.5816638" id="Fill-32" fill="#4D72B7"></path>
                    <path d="M23.0462718,13.5294796 C23.0462718,13.2503878 23.0419512,12.9766684 23.0356794,12.7057041 C23.0418118,12.9768061 23.0462718,13.2503878 23.0462718,13.5294796" id="Fill-34" fill="#4D72B7"></path>
                    <path d="M20.9679303,24.8666969 C20.9325296,24.9519673 20.8930871,25.0340694 20.8516934,25.1145184 C20.8930871,25.0340694 20.9325296,24.9519673 20.9679303,24.8666969" id="Fill-36" fill="#4D72B7"></path>
                    <path d="M23.0289895,12.4574281 C23.0229965,12.2561679 23.0151916,12.0573872 23.0058537,11.860673 C23.0150523,12.0576628 23.0231359,12.2561679 23.0289895,12.4574281" id="Fill-38" fill="#4D72B7"></path>
                    <path d="M20.7127944,25.0289311 L10.0661045,17.6382321 C8.71474564,19.0613801 8.88868293,21.4178189 10.5901463,22.5989311 L15.9508432,26.3202474 C17.6315401,27.4857934 19.9416446,26.8871097 20.8517491,25.114477 C20.8045017,25.0885791 20.7580906,25.0603393 20.7127944,25.0289311" id="Fill-40" fill="#4D87C6"></path>
                    <path d="M31.4564783,13.3146304 C31.7634943,13.3146304 32.0006305,13.2463417 32.1684122,13.1091581 C32.3361939,12.9731867 32.4199096,12.7378128 32.4199096,12.4038445 C32.4199096,12.0563397 32.337595,11.8179352 32.1727906,11.6874188 C32.0074609,11.5571045 31.7690987,11.4924524 31.4564783,11.4924524 L30.536306,11.4924524 L30.536306,13.3146304 L31.4564783,13.3146304 Z M29,10 L31.7256646,10 C32.4372482,10 32.9941854,10.2070886 33.3966514,10.6208618 C33.7989422,11.0350391 34,11.629434 34,12.4038445 C34,12.9238895 33.9013976,13.3683724 33.7047182,13.7352729 C33.5078637,14.1025774 33.2304459,14.3765405 32.8714141,14.5565561 L33.947809,17 L32.3680689,17 L31.4044625,14.8070829 L30.536306,14.8070829 L30.536306,17 L29,17 L29,10 Z M40.4145213,15.1756566 C40.6883222,15.0220297 40.9058187,14.8007915 41.0681409,14.5131044 C41.229898,14.2250298 41.3104942,13.8887167 41.3104942,13.5045526 C41.3104942,13.1205823 41.2312162,12.7860128 41.072472,12.5010378 C40.9135394,12.2168378 40.6975493,11.9955996 40.4237484,11.8388731 C40.1499475,11.6823402 39.8454523,11.6034927 39.509133,11.6034927 C39.1671643,11.6034927 38.858903,11.6823402 38.5851021,11.8388731 C38.3113012,11.9955996 38.0953111,12.2168378 37.9367552,12.5010378 C37.7776343,12.7860128 37.6983563,13.1205823 37.6983563,13.5045526 C37.6983563,13.8887167 37.7776343,14.2250298 37.9367552,14.5131044 C38.0953111,14.8007915 38.3131843,15.0220297 38.5896215,15.1756566 C38.8666236,15.3292835 39.1731902,15.4058063 39.509133,15.4058063 C39.8388615,15.4058063 40.1407204,15.3292835 40.4145213,15.1756566 Z M37.7217066,16.5582985 C37.1899228,16.2638308 36.7699944,15.852351 36.4619213,15.3240528 C36.1540365,14.7963358 36,14.1893837 36,13.5045526 C36,12.8199153 36.1540365,12.2114134 36.4619213,11.6800155 C36.7699944,11.1493925 37.1899228,10.7361692 37.7217066,10.4417015 C38.2538671,10.1474276 38.8494875,10 39.509133,10 C40.1625642,10 40.7553601,10.1474276 41.2875205,10.4417015 C41.819116,10.7361692 42.237538,11.1493925 42.5425981,11.6800155 C42.8474699,12.2114134 43,12.8199153 43,13.5045526 C43,14.1893837 42.8474699,14.7963358 42.5425981,15.3240528 C42.237538,15.852351 41.819116,16.2638308 41.2875205,16.5582985 C40.7553601,16.8525724 40.1625642,17 39.509133,17 C38.8494875,17 38.2538671,16.8525724 37.7217066,16.5582985 Z M45.8245996,16.8796945 C45.4905924,16.800072 45.2156741,16.6894529 45,16.5484183 L45,15.0220297 C45.2774063,15.2012288 45.5664749,15.3352891 45.8670502,15.4249855 C46.1673146,15.5146819 46.4537397,15.5596269 46.7263256,15.5596269 C46.9779195,15.5596269 47.1682476,15.5115822 47.2966879,15.4151053 C47.4251283,15.3194033 47.4893485,15.1816622 47.4893485,15.0026569 C47.4893485,14.8684028 47.4548282,14.7513907 47.3853211,14.6520079 C47.3159695,14.5530125 47.2145856,14.4617663 47.0808583,14.3786566 C46.9472866,14.2951595 46.7392318,14.179891 46.4566941,14.0326571 C45.9583269,13.7705422 45.5957083,13.4795616 45.3699269,13.1591343 C45.1435236,12.8392882 45.0309439,12.4454377 45.0309439,11.978164 C45.0309439,11.5941937 45.1166226,11.2512938 45.2892241,10.9508206 C45.461048,10.6497661 45.7011351,10.416323 46.0096408,10.2493289 C46.3178355,10.0831096 46.6725237,10 47.073239,10 C47.4018038,10 47.6947598,10.0317715 47.951796,10.095702 C48.2085212,10.1598262 48.4554502,10.2626962 48.6914943,10.4029557 L48.6914943,11.8915673 C48.2393096,11.5972933 47.7849479,11.4498658 47.3276318,11.4498658 C47.0808583,11.4498658 46.8844659,11.4992666 46.7376769,11.5988432 C46.5915099,11.6976448 46.5182709,11.8404229 46.5182709,12.0258213 C46.5182709,12.2114134 46.5925984,12.3621343 46.7415643,12.4770155 C46.8905302,12.5922841 47.1654486,12.7497855 47.5663194,12.9475825 C47.9312704,13.1335621 48.2152076,13.3158608 48.4181309,13.4948662 C48.6208988,13.6740653 48.7687762,13.8825174 48.8611413,14.1190601 C48.9538174,14.3561841 49,14.6568511 49,15.0220297 C49,15.6429303 48.8188462,16.1278333 48.4566941,16.4763513 C48.0943866,16.8256441 47.5537241,17 46.8340849,17 C46.4951019,17 46.1584513,16.9597044 45.8245996,16.8796945 Z M55.3165703,14.1960399 L54.504817,11.842839 L53.683237,14.1960399 L55.3165703,14.1960399 Z M53.6741811,10 L55.3356455,10 L58,17 L56.2714836,17 L55.7366089,15.5580154 L53.2726397,15.5580154 L52.7379576,17 L51,17 L53.6741811,10 Z M60,10 L61.4367588,10 L63.5468429,14.1661375 L63.5468429,10 L65,10 L65,17 L63.5713576,17 L61.4533227,12.8243664 L61.4533227,17 L60,17 L60,10 Z M74.430558,13.4152452 C74.7372237,13.4152452 74.9789134,13.3417035 75.155452,13.19462 C75.3318155,13.0479407 75.4199096,12.7941813 75.4199096,12.433342 C75.4199096,12.0733108 75.3333917,11.8262187 75.1598305,11.6924698 C74.9860941,11.5593269 74.7430033,11.4924524 74.430558,11.4924524 L73.5366563,11.4924524 L73.5366563,13.4152452 L74.430558,13.4152452 Z M72,10 L74.673824,10 C75.379628,10 75.943921,10.2139579 76.3663526,10.6412676 C76.7887842,11.0681733 77,11.6655988 77,12.433342 C77,13.221289 76.7901853,13.8306347 76.370731,14.261177 C75.9511016,14.6921234 75.3854075,14.9068895 74.673824,14.9068895 L73.5366563,14.9068895 L73.5366563,17 L72,17 L72,10 Z M82.3163776,14.1960399 L81.5046243,11.842839 L80.683237,14.1960399 L82.3163776,14.1960399 Z M80.6739884,10 L82.3354528,10 L85,17 L83.2712909,17 L82.7364162,15.5580154 L80.272447,15.5580154 L79.7377649,17 L78,17 L80.6739884,10 Z M88.5800092,14.3362582 L86,10 L87.8900161,10 L89.4697371,12.7138486 L91.1198697,10 L93,10 L90.349781,14.3362582 L90.349781,17 L88.5800092,17 L88.5800092,14.3362582 Z" id="Combined-Shape" fill="#FFFFFF"></path>
                </g>
            </g>
        </g>
    </g>
</svg>