<?xml version="1.0" encoding="UTF-8"?>
<svg width="126px" height="22px" viewBox="0 0 126 22" version="1.1" xmlns="http://www.w3.org/2000/svg" xmlns:xlink="http://www.w3.org/1999/xlink">
    <!-- Generator: Sketch 52.2 (67145) - http://www.bohemiancoding.com/sketch -->
    <title>mastercard</title>
    <desc>Created with Sketch.</desc>
    <g id="Page-1" stroke="none" stroke-width="1" fill="none" fill-rule="evenodd">
        <g id="Main" transform="translate(-966.000000, -2590.000000)">
            <g id="Group-27" transform="translate(0.000000, 2255.000000)">
                <g id="mastercard" transform="translate(966.000000, 335.000000)">
                    <g id="Group" transform="translate(43.000000, 4.000000)" fill="#FFFFFF" fill-rule="nonzero">
                        <g id="bgu9a-link">
                            <path d="M15.0096947,6.84005882 C15.0096947,8.15358824 15.8460305,9.23029412 17.2183817,9.23029412 C18.5299084,9.23029412 19.4118626,8.19758824 19.4118626,6.84005882 C19.4118626,5.48317647 18.5292748,4.45047059 17.2183817,4.45047059 C15.8460305,4.45047059 15.0096947,5.52652941 15.0096947,6.84005882 Z M20.9147328,10.5697059 L19.3294962,10.5697059 L19.3294962,9.66511765 C18.7824522,10.3898597 17.9248202,10.7981149 17.0295725,10.7599412 C14.9792824,10.7599412 13.3788397,9.11964706 13.3788397,6.84005882 C13.3788397,4.56047059 14.9881527,2.92017647 17.0295725,2.92017647 C17.9200565,2.88268971 18.7734148,3.28686803 19.320626,4.00529412 L19.320626,3.09811765 L20.905229,3.09811765 L20.905229,6.84005882 L20.9147328,10.5697059 Z M76.6248397,9.23029412 C77.9338321,9.23029412 78.8151527,8.19758824 78.8151527,6.84005882 C78.8151527,5.48317647 77.9344656,4.45047059 76.6248397,4.45047059 C75.2543893,4.45047059 74.4193206,5.52652941 74.4193206,6.84005882 C74.4193206,8.15035294 75.2543893,9.23029412 76.6242061,9.23029412 L76.6248397,9.23029412 Z M82.0825649,10.2099412 L82.0825649,10.3309412 L82.1890076,10.3309412 C82.2078214,10.3366404 82.2278504,10.3366404 82.2466641,10.3309412 C82.2608392,10.3207923 82.2689622,10.3039569 82.2682061,10.2862941 C82.2687442,10.2688573 82.260646,10.2523166 82.2466641,10.2422941 C82.228048,10.2367221 82.2082573,10.2367221 82.1896412,10.2422941 L82.0825649,10.2099412 Z M82.1890076,10.1271176 C82.2347591,10.1238765 82.2801416,10.1374136 82.3169924,10.1652941 C82.3474198,10.1907408 82.3643243,10.2293447 82.3626107,10.2694706 C82.3637905,10.3040556 82.350414,10.3375014 82.3258626,10.3613529 C82.2981862,10.3869375 82.2629754,10.4024137 82.2257557,10.4053529 L82.365145,10.5735882 L82.2561679,10.5735882 L82.1250153,10.4053529 L82.0825649,10.4053529 L82.0825649,10.5735882 L81.9913282,10.5735882 L81.9913282,10.1303529 L82.1890076,10.1271176 Z M82.3017863,10.6971765 C82.4327218,10.6355659 82.5165949,10.5017891 82.5165949,10.3545588 C82.5165949,10.2073286 82.4327218,10.0735518 82.3017863,10.0119412 C82.2575061,9.99285111 82.2098219,9.98337593 82.1617634,9.98411765 C82.1126713,9.98328353 82.0639345,9.99275362 82.0185725,10.0119412 C81.9081765,10.0617781 81.8286514,10.1636369 81.8056606,10.2846471 C81.7826698,10.4056573 81.8191242,10.530498 81.9032595,10.6188824 C81.9730784,10.6894507 82.0679941,10.7279906 82.1661985,10.7256471 C82.2128272,10.7257457 82.2589781,10.716055 82.3017863,10.6971765 Z M82.3442366,9.91617647 C82.4564228,9.96558707 82.5457728,10.0570685 82.5938702,10.1717647 C82.6680452,10.3511086 82.6281859,10.558483 82.4931298,10.6958824 C82.4502942,10.7397864 82.3997946,10.7751195 82.3442366,10.8000588 C82.1677131,10.8775385 81.9628091,10.8378497 81.8263231,10.6997419 C81.6898371,10.561634 81.6490858,10.3527485 81.7233206,10.1717647 C81.7973671,9.98923342 81.9740823,9.87235112 82.1674656,9.878 L82.1655649,9.878 C82.2270229,9.878 82.2878473,9.89094118 82.3442366,9.91617647 Z M80.3091527,10.5664706 L78.723916,10.5664706 L78.723916,9.66252941 C78.1767376,10.3870285 77.3191273,10.795032 76.4239924,10.7567059 C74.3737023,10.7567059 72.7732595,9.11705882 72.7732595,6.83811765 C72.7732595,4.55917647 74.3825725,2.91888235 76.4239924,2.91888235 C77.3191273,2.88055622 78.1767376,3.28855978 78.723916,4.01305882 L78.723916,0.11 L80.3091527,0.11 L80.3091527,10.5664706 Z M40.5629237,4.37217647 C39.4351374,4.37282353 38.7971145,5.10788235 38.6298473,6.18911765 L42.4053969,6.18911765 C42.2381298,5.02958824 41.5842672,4.37282353 40.5629237,4.37217647 Z M40.5825649,2.91758824 C42.6239847,2.91758824 44.0419542,4.51064706 44.0419542,6.83682353 C44.0419542,7.05552941 44.0267481,7.25805882 44.011542,7.46058824 L38.6026031,7.46058824 C38.8306947,8.80452941 39.7582672,9.28788235 40.7808779,9.28788235 C41.5559394,9.27860407 42.3055482,9.00405536 42.9097328,8.50817647 L43.6858779,9.71170588 C42.8506949,10.4253154 41.7867905,10.7986282 40.6985115,10.7599412 C38.5202366,10.7599412 36.9654122,9.21347059 36.9654122,6.84005882 C36.9654122,4.51388235 38.4625802,2.92017647 40.5920687,2.92017647 L40.5825649,2.91758824 Z M61.9243359,9.23029412 C63.2358626,9.23029412 64.1178168,8.19758824 64.1178168,6.84005882 C64.1178168,5.48317647 63.2358626,4.45047059 61.9243359,4.45047059 C60.5526183,4.45047059 59.7156489,5.52652941 59.7156489,6.84005882 C59.7156489,8.15035294 60.5519847,9.23029412 61.9243359,9.23029412 Z M65.6181527,10.5606471 L64.0316489,10.5606471 L64.0316489,9.65605882 C63.4838689,10.3809375 62.6256243,10.7891469 61.7298244,10.7508824 C59.677,10.7508824 58.0759237,9.11058824 58.0759237,6.831 C58.0759237,4.55141176 59.6865038,2.91111765 61.7298244,2.91111765 C62.6255116,2.8727006 63.4837346,3.28065849 64.0316489,4.00529412 L64.0316489,3.09811765 L65.6181527,3.09811765 L65.6181527,10.5606471 Z M50.7712901,6.83358824 C50.7712901,4.57017647 52.3109084,2.91435294 54.6564504,2.91435294 C55.6080387,2.866281 56.5426743,3.18445011 57.2757023,3.806 L56.5153969,5.11888235 C55.9679945,4.69141865 55.2998809,4.45626157 54.6108321,4.44852941 C53.3480916,4.46405882 52.4173511,5.40294118 52.4173511,6.83682353 C52.4173511,8.27135294 53.3449237,9.22576471 54.6108321,9.22576471 C55.2998809,9.21803255 55.9679945,8.98287546 56.5153969,8.55541176 L57.2757023,9.86829412 C56.5426743,10.489844 55.6080387,10.8080131 54.6564504,10.7599412 C52.3109084,10.7599412 50.7712901,9.10411765 50.7712901,6.84005882 L50.7712901,6.83358824 Z M72.3107405,3.12335294 L71.824145,4.65429412 C71.5087722,4.52551041 71.1715622,4.46173641 70.8319466,4.46664706 C69.7947634,4.46664706 69.2777557,5.14088235 69.2777557,6.38841176 L69.2777557,10.5729412 L67.6925191,10.5729412 L67.6925191,3.10782353 L69.2625496,3.10782353 L69.2625496,4.015 C69.6568834,3.31753551 70.3940292,2.89714963 71.1823206,2.92017647 C71.5669084,2.92147059 71.9489618,2.99005882 72.3107405,3.12335294 Z M28.0603359,5.016 C27.3686264,4.60884588 26.5865793,4.38879834 25.7882901,4.37670588 C24.9177405,4.37670588 24.4000992,4.70411765 24.4000992,5.25023529 C24.4000992,5.74847059 24.9513206,5.88888235 25.636229,5.98270588 L26.3825954,6.09205882 C27.9659313,6.32564706 28.9283511,7.01152941 28.9283511,8.32441176 C28.9283511,9.74341176 27.7067939,10.7599412 25.6026489,10.7599412 C24.4753566,10.7914318 23.368103,10.451331 22.4448473,9.79 L23.1665038,8.52694118 C23.8691376,9.06013632 24.7277145,9.3349301 25.6026489,9.30664706 C26.6867176,9.30664706 27.2651832,8.97664706 27.2651832,8.39947059 C27.2651832,7.97888235 26.8514504,7.74464706 25.9834351,7.61976471 L25.2370687,7.51041176 C23.6049466,7.27682353 22.7217252,6.52817647 22.7217252,5.30911765 C22.7217252,3.82735294 23.9217405,2.92017647 25.7673817,2.92017647 C26.8116974,2.88287334 27.8444316,3.15356632 28.7420763,3.69988235 L28.0603359,5.016 Z M49.1714809,2.92017647 C49.5560687,2.92147059 49.9381221,2.99005882 50.2999008,3.12335294 L49.8133053,4.65429412 C49.4979325,4.52551041 49.1607225,4.46173641 48.8211069,4.46664706 C47.7839237,4.46664706 47.266916,5.14088235 47.266916,6.38841176 L47.266916,10.5729412 L45.6816794,10.5729412 L45.6816794,3.10782353 L47.2517099,3.10782353 L47.2517099,4.015 C47.6460437,3.31753551 48.3831895,2.89714963 49.1714809,2.92017647 Z M35.6507176,4.59282353 L33.0625115,4.59282353 L33.0625115,7.96658824 C33.0625115,8.71458824 33.3241832,9.21347059 34.1149008,9.21347059 C34.6098528,9.19706722 35.0925814,9.0523315 35.5176641,8.79288235 L35.9738473,10.1834118 C35.3799968,10.562189 34.6934039,10.7618243 33.9932519,10.7592941 C32.1190992,10.7592941 31.4652366,9.72788235 31.4652366,7.99441176 L31.4652366,4.59282353 L29.9864427,4.59282353 L29.9864427,3.10911765 L31.4652366,3.10911765 L31.4652366,0.845058824 L33.0656794,0.845058824 L33.0656794,3.10911765 L35.6545191,3.10911765 L35.6507176,4.59282353 Z M10.3730992,10.5729412 L10.3730992,6.41882353 C10.3730992,5.15317647 9.82567939,4.45176471 8.77265649,4.45176471 C7.72026718,4.45176471 6.98974046,5.13764706 6.98974046,6.435 L6.98974046,10.5729412 L5.39943511,10.5729412 L5.39943511,6.41882353 C5.39943511,5.15317647 4.897,4.45176471 3.81356489,4.45176471 C2.73076336,4.45176471 2.03128244,5.13764706 2.03128244,6.435 L2.03128244,10.5729412 L0.430839695,10.5729412 L0.430839695,3.10135294 L2.01607634,3.10135294 L2.01607634,4.037 C2.48287834,3.30775044 3.29278145,2.88532698 4.1449313,2.92664706 C5.12523944,2.8845047 6.04929801,3.39448819 6.5519313,4.25505882 C7.10335427,3.36849728 8.08404356,2.85929418 9.11035878,2.92664706 C10.8780687,2.94217647 11.9760763,4.13017647 11.9760763,5.89535294 L11.9760763,10.5735882 L10.3730992,10.5729412 Z" id="bgu9a"></path>
                        </g>
                    </g>
                    <g id="Group">
                        <g id="bgu9b-link" transform="translate(12.631579, 1.885714)" fill="#FF5F00">
                            <polygon id="bgu9b" points="0.397894737 17.6817143 0.397894737 0.534285714 9.95368421 0.534285714 9.95368421 17.6817143"></polygon>
                        </g>
                        <g id="bgu9c-link" fill="#EB001B">
                            <path d="M13.6389474,11.0018857 C13.6349073,7.65985671 15.1718463,4.50075756 17.8086316,2.43131429 C13.3326316,-1.0824 6.90442105,-0.570114286 3.04231579,3.60674286 C-0.820421053,7.7836 -0.820421053,14.2233143 3.04231579,18.4001714 C6.90442105,22.5776571 13.3326316,23.0893143 17.8086316,19.5756 C15.1709744,17.5054746 13.6339382,14.3450172 13.6389474,11.0018857 Z" id="bgu9c"></path>
                        </g>
                        <g id="bgu9d-link" transform="translate(17.684211, 0.000000)" fill="#F79E1B">
                            <path d="M17.7915789,11 C17.7915789,15.1743429 15.4042105,18.9828571 11.6450526,20.8063429 C7.88570582,22.6305936 3.40865798,22.1502798 0.126315789,19.5705714 C2.76198192,17.4994921 4.29914068,14.3409131 4.29789474,10.9987429 C4.29789474,7.65348571 2.76,4.49302857 0.126315789,2.42628571 C3.40905928,-0.15373053 7.88675254,-0.633816541 11.6463158,1.19114286 C15.410548,3.02258003 17.7958974,6.82999259 17.7915789,11 Z" id="bgu9d"></path>
                        </g>
                        <g id="bgu9e-link" transform="translate(34.105263, 16.971429)" fill="#F79E1B" fill-rule="nonzero">
                            <path d="M1.02,0.982457143 L1.02,0.358285714 L0.925263158,0.358285714 L0.797052632,0.804571429 L0.668842105,0.358285714 L0.555789474,0.358285714 L0.555789474,0.982457143 L0.620210526,0.982457143 L0.620210526,0.514171429 L0.739578947,0.920228571 L0.821684211,0.920228571 L0.941052632,0.514171429 L0.941052632,0.986857143 L1.02,0.982457143 Z M0.322105263,0.982457143 L0.322105263,0.465142857 L0.466105263,0.465142857 L0.466105263,0.362685714 L0.107368421,0.362685714 L0.107368421,0.469542857 L0.251368421,0.469542857 L0.251368421,0.986857143 L0.322105263,0.982457143 Z" id="bgu9e"></path>
                        </g>
                    </g>
                </g>
            </g>
        </g>
    </g>
</svg>