<svg xmlns="http://www.w3.org/2000/svg" xmlns:xlink="http://www.w3.org/1999/xlink" width="23" height="27" viewBox="0 0 23 27"><defs><path id="lm9la" d="M263.046 22.532c0-5.08-1.05-8.856-2.078-11.337-.814-1.964-3.261-2.673-5.018-1.453l-14.528 10.084a3.284 3.284 0 0 0 0 5.411l14.528 10.085c1.757 1.22 4.204.51 5.018-1.453 1.029-2.482 2.078-6.258 2.078-11.337"/><path id="lm9lb" d="M260.966 11.188a3.368 3.368 0 0 0-.117-.248 1.612 1.612 0 0 0-.139.086l-14.762 10.247a1.52 1.52 0 0 0 0 2.504l14.762 10.247c.046.032.092.06.14.086.04-.08.08-.163.116-.248 1.028-2.482 2.078-6.258 2.078-11.337 0-5.08-1.05-8.855-2.078-11.337"/><path id="lm9lc" d="M255.951 9.742l-5.394 3.745a3.283 3.283 0 0 0 .035 5.385l12.128 8.418c.203-1.434.328-3.018.328-4.758 0-5.08-1.05-8.856-2.078-11.337-.814-1.964-3.261-2.673-5.019-1.453"/><path id="lm9ld" d="M250.592 31.6l5.361 3.721c1.757 1.218 4.203.51 5.017-1.454 1.03-2.481 2.079-6.258 2.079-11.337a33.84 33.84 0 0 0-.33-4.76l-12.127 8.419a3.284 3.284 0 0 0 0 5.41"/><path id="lm9le" d="M263.04 21.706a35.323 35.323 0 0 0-.03-.845l-.014-.279a34.2 34.2 0 0 0-.275-2.812l-12.127 8.418a3.374 3.374 0 0 0-.524.45l10.647 7.392c.045.03.091.06.139.085.04-.08.08-.162.116-.248 1.029-2.481 2.078-6.258 2.078-11.337 0-.28-.004-.553-.01-.824"/><path id="lm9lf" d="M260.716 11.026l-10.646 7.39c.155.163.328.314.523.449l12.128 8.419a32.572 32.572 0 0 0 .274-2.809l.014-.28a35.372 35.372 0 0 0 .04-1.67c0-5.08-1.05-8.855-2.078-11.337a3.43 3.43 0 0 0-.116-.248 1.591 1.591 0 0 0-.14.086"/><path id="lm9lg" d="M263.034 21.706a36.524 36.524 0 0 0-.03-.845l-.013-.279-.013-.2-.026-.412a33.955 33.955 0 0 0-.236-2.2l-6.856 4.76 6.856 4.759c.07-.495.13-1.007.18-1.537l.022-.248.034-.414.013-.206.026-.404.014-.28c.005-.112.008-.225.012-.337.004-.088.008-.173.01-.261a48.699 48.699 0 0 0 .018-1.072c0-.28-.005-.553-.01-.824"/><path id="lm9lh" d="M260.714 11.032c.045-.03.092-.06.139-.085.041.08.08.162.116.248-.814-1.964-3.261-2.673-5.018-1.453l-5.394 3.744a3.283 3.283 0 0 0-.489 4.936z"/><path id="lm9li" d="M263.034 23.354"/><path id="lm9lj" d="M262.72 27.29v-.001"/><path id="lm9lk" d="M263.008 24.197"/><path id="lm9ll" d="M262.898 25.748l.023-.248-.023.248"/><path id="lm9lm" d="M262.95 25.09"/><path id="lm9ln" d="M262.92 19.557a26.87 26.87 0 0 0-.022-.247l.023.247"/><path id="lm9lo" d="M262.99 20.581"/><path id="lm9lp" d="M263.045 22.534"/><path id="lm9lq" d="M260.968 33.87"/><path id="lm9lr" d="M263.031 21.457"/><path id="lm9ls" d="M260.714 34.03l-10.646-7.39a3.283 3.283 0 0 0 .524 4.96l5.36 3.722c1.681 1.166 3.991.567 4.901-1.206a1.552 1.552 0 0 1-.139-.085"/></defs><g><g transform="translate(-240 -9)"><use fill="#52439a" xlink:href="#lm9la"/></g><g transform="translate(-240 -9)"><use fill="#ec4b23" xlink:href="#lm9lb"/></g><g transform="translate(-240 -9)"><use fill="#6fcbdc" xlink:href="#lm9lc"/></g><g transform="translate(-240 -9)"><use fill="#6fcbdc" xlink:href="#lm9ld"/></g><g transform="translate(-240 -9)"><use fill="#f5881f" xlink:href="#lm9le"/></g><g transform="translate(-240 -9)"><use fill="#f5881f" xlink:href="#lm9lf"/></g><g transform="translate(-240 -9)"><use fill="#f9d009" xlink:href="#lm9lg"/></g><g transform="translate(-240 -9)"><use fill="#4d87c6" xlink:href="#lm9lh"/></g><g transform="translate(-240 -9)"><use fill="#4d72b7" xlink:href="#lm9li"/></g><g transform="translate(-240 -9)"><use fill="#4d72b7" xlink:href="#lm9lj"/></g><g transform="translate(-240 -9)"><use fill="#4d72b7" xlink:href="#lm9lk"/></g><g transform="translate(-240 -9)"><use fill="#4d72b7" xlink:href="#lm9ll"/></g><g transform="translate(-240 -9)"><use fill="#4d72b7" xlink:href="#lm9lm"/></g><g transform="translate(-240 -9)"><use fill="#4d72b7" xlink:href="#lm9ln"/></g><g transform="translate(-240 -9)"><use fill="#4d72b7" xlink:href="#lm9lo"/></g><g transform="translate(-240 -9)"><use fill="#4d72b7" xlink:href="#lm9lp"/></g><g transform="translate(-240 -9)"><use fill="#4d72b7" xlink:href="#lm9lq"/></g><g transform="translate(-240 -9)"><use fill="#4d72b7" xlink:href="#lm9lr"/></g><g transform="translate(-240 -9)"><use fill="#4d87c6" xlink:href="#lm9ls"/></g></g></svg>