<svg width="93" height="27" viewBox="0 0 93 27" xmlns="http://www.w3.org/2000/svg">
    <title>
        logo
    </title>
    <g fill="none" fill-rule="evenodd">
        <path d="M23.046 13.53c0-5.08-1.05-8.856-2.078-11.338C20.154.228 17.707-.48 15.95.74L1.422 10.824a3.284 3.284 0 0 0 0 5.411L15.95 26.32c1.757 1.22 4.204.512 5.018-1.452 1.029-2.482 2.078-6.258 2.078-11.338" fill="#52439A"/>
        <path d="M20.968 2.192a3.37 3.37 0 0 0-.116-.247 1.61 1.61 0 0 0-.14.085L5.952 12.278a1.52 1.52 0 0 0 0 2.503L20.713 25.03c.045.031.092.06.139.086.041-.08.08-.163.116-.248 1.029-2.482 2.078-6.258 2.078-11.338 0-5.079-1.05-8.855-2.078-11.337" fill="#EC4B23"/>
        <path d="M15.95.74l-5.395 3.744a3.283 3.283 0 0 0 .035 5.385l12.128 8.42c.203-1.436.328-3.02.328-4.76 0-5.079-1.05-8.855-2.078-11.337C20.154.228 17.707-.48 15.949.74" fill="#6FCBDC"/>
        <path d="M10.59 22.599l5.36 3.721c1.758 1.219 4.204.51 5.018-1.453 1.029-2.482 2.078-6.258 2.078-11.338 0-1.74-.125-3.325-.329-4.76L10.59 17.188a3.284 3.284 0 0 0 0 5.411" fill="#6FCBDC"/>
        <path d="M23.036 12.706a35.466 35.466 0 0 0-.03-.845c-.004-.093-.008-.187-.014-.28a34.155 34.155 0 0 0-.275-2.812L10.59 17.188a3.374 3.374 0 0 0-.524.45l10.647 7.39c.045.032.092.06.139.086.041-.08.08-.162.116-.247 1.029-2.482 2.078-6.258 2.078-11.338 0-.279-.004-.552-.01-.823" fill="#F5881F"/>
        <path d="M20.713 2.03L10.067 9.42c.155.163.328.314.523.45l12.128 8.418a32.588 32.588 0 0 0 .274-2.808l.014-.281a35.32 35.32 0 0 0 .04-1.67c0-5.079-1.05-8.855-2.078-11.337a3.428 3.428 0 0 0-.116-.248 1.588 1.588 0 0 0-.14.086" fill="#F5881F"/>
        <path d="M23.036 12.705a35.433 35.433 0 0 0-.03-.844c-.004-.093-.008-.187-.014-.28-.003-.067-.008-.133-.013-.2-.008-.137-.016-.275-.026-.411a33.87 33.87 0 0 0-.236-2.2l-6.856 4.759 6.857 4.759c.07-.494.13-1.007.18-1.536l.022-.249a36.2 36.2 0 0 0 .033-.414l.013-.206c.01-.134.019-.267.026-.403l.014-.281.013-.337.01-.261a46.651 46.651 0 0 0 .017-1.072c0-.279-.004-.552-.01-.824" fill="#F9D009"/>
        <path d="M20.713 2.03c.045-.031.092-.06.139-.086.041.081.08.163.116.248C20.154.228 17.707-.48 15.949.74l-5.394 3.744a3.283 3.283 0 0 0-.488 4.936l10.646-7.39z" fill="#4D87C6"/>
        <path d="M23.036 14.354" fill="#4D72B7"/>
        <path d="M22.718 18.288" fill="#4D72B7"/>
        <path d="M23.006 15.199" fill="#4D72B7"/>
        <path d="M22.897 16.751l.023-.248-.023.248" fill="#4D72B7"/>
        <path d="M22.953 16.089" fill="#4D72B7"/>
        <path d="M22.92 10.555a26.764 26.764 0 0 0-.023-.248l.023.248" fill="#4D72B7"/>
        <path d="M22.992 11.582" fill="#4D72B7"/>
        <path d="M23.046 13.53" fill="#4D72B7"/>
        <path d="M20.968 24.867" fill="#4D72B7"/>
        <path d="M23.029 12.457" fill="#4D72B7"/>
        <path d="M20.713 25.029l-10.647-7.39a3.283 3.283 0 0 0 .524 4.96l5.36 3.721c1.682 1.166 3.992.567 4.902-1.206a1.554 1.554 0 0 1-.14-.085" fill="#4D87C6"/>
        <path d="M31.456 13.315c.307 0 .545-.069.712-.206.168-.136.252-.371.252-.705 0-.348-.082-.586-.247-.717-.166-.13-.404-.195-.717-.195h-.92v1.823h.92zM29 10h2.726c.711 0 1.268.207 1.67.62.403.415.604 1.01.604 1.784 0 .52-.099.964-.295 1.331a1.892 1.892 0 0 1-.834.822L33.948 17h-1.58l-.964-2.193h-.868V17H29v-7zm11.415 5.176c.273-.154.49-.375.653-.663.162-.288.242-.624.242-1.008s-.079-.719-.238-1.004a1.704 1.704 0 0 0-.648-.662 1.81 1.81 0 0 0-.915-.236c-.342 0-.65.08-.924.236-.274.157-.49.378-.648.662-.16.285-.239.62-.239 1.004s.08.72.239 1.008c.158.288.376.509.653.663.277.153.583.23.92.23.329 0 .63-.077.905-.23zm-2.693 1.382a3.265 3.265 0 0 1-1.26-1.234c-.308-.528-.462-1.135-.462-1.82 0-.684.154-1.293.462-1.824a3.26 3.26 0 0 1 1.26-1.238A3.63 3.63 0 0 1 39.509 10c.654 0 1.246.147 1.779.442.531.294.95.707 1.255 1.238.304.531.457 1.14.457 1.825 0 .684-.153 1.291-.457 1.82-.305.527-.724.939-1.255 1.233a3.613 3.613 0 0 1-1.779.442 3.63 3.63 0 0 1-1.787-.442zm8.103.322a2.609 2.609 0 0 1-.825-.332v-1.526c.277.18.566.313.867.403.3.09.587.135.86.135.25 0 .441-.048.57-.145a.484.484 0 0 0 .192-.412.596.596 0 0 0-.104-.351c-.069-.099-.17-.19-.304-.273a10.01 10.01 0 0 0-.624-.346c-.499-.262-.861-.553-1.087-.874-.226-.32-.34-.714-.34-1.18 0-.385.087-.728.26-1.028.171-.301.411-.535.72-.702.308-.166.663-.249 1.063-.249.329 0 .622.032.879.096s.503.167.74.307v1.489c-.453-.295-.907-.442-1.364-.442-.247 0-.444.05-.59.149a.485.485 0 0 0-.22.427c0 .185.075.336.224.451.149.115.423.273.824.47.365.187.65.369.852.548.203.18.35.388.443.624.093.237.139.538.139.903 0 .62-.181 1.106-.543 1.454-.363.35-.903.524-1.623.524-.339 0-.676-.04-1.01-.12zm9.492-2.684l-.812-2.353-.822 2.353h1.634zM53.674 10h1.662L58 17h-1.729l-.534-1.442h-2.464L52.738 17H51l2.674-7zM60 10h1.437l2.11 4.166V10H65v7h-1.429l-2.118-4.176V17H60v-7zm14.43 3.415c.307 0 .549-.073.725-.22.177-.147.265-.4.265-.762 0-.36-.087-.607-.26-.74-.174-.134-.417-.2-.73-.2h-.893v1.922h.894zM72 10h2.674c.706 0 1.27.214 1.692.641.423.427.634 1.025.634 1.792 0 .788-.21 1.398-.63 1.828-.419.431-.985.646-1.696.646h-1.137V17H72v-7zm10.316 4.196l-.811-2.353-.822 2.353h1.633zM80.674 10h1.661L85 17h-1.729l-.535-1.442h-2.464L79.738 17H78l2.674-7zm7.906 4.336L86 10h1.89l1.58 2.714L91.12 10H93l-2.65 4.336V17h-1.77v-2.664z" fill="#FFF"/>
    </g>
</svg>
