<svg xmlns="http://www.w3.org/2000/svg" xmlns:xlink="http://www.w3.org/1999/xlink" width="80" height="27" viewBox="0 0 80 27"><defs><path id="lm25a" d="M1163.046 2348.532c0-5.08-1.05-8.856-2.078-11.337-.814-1.964-3.261-2.673-5.018-1.453l-14.528 10.084a3.284 3.284 0 0 0 0 5.411l14.528 10.085c1.757 1.22 4.204.51 5.018-1.453 1.029-2.482 2.078-6.258 2.078-11.337"/><path id="lm25b" d="M1160.966 2337.188a3.368 3.368 0 0 0-.117-.248 1.612 1.612 0 0 0-.139.086l-14.762 10.247a1.52 1.52 0 0 0 0 2.504l14.762 10.247c.046.032.092.06.14.086.04-.08.08-.163.116-.248 1.028-2.482 2.078-6.258 2.078-11.337 0-5.08-1.05-8.855-2.078-11.337"/><path id="lm25c" d="M1155.951 2335.742l-5.394 3.745a3.283 3.283 0 0 0 .035 5.385l12.128 8.418c.203-1.434.328-3.018.328-4.758 0-5.08-1.05-8.856-2.078-11.337-.814-1.964-3.261-2.673-5.019-1.453"/><path id="lm25d" d="M1150.592 2357.6l5.361 3.721c1.757 1.218 4.203.51 5.017-1.454 1.03-2.481 2.079-6.258 2.079-11.337a33.84 33.84 0 0 0-.33-4.76l-12.127 8.419a3.284 3.284 0 0 0 0 5.41"/><path id="lm25e" d="M1163.04 2347.706a35.323 35.323 0 0 0-.03-.845l-.014-.279a34.2 34.2 0 0 0-.275-2.812l-12.127 8.418a3.374 3.374 0 0 0-.524.45l10.647 7.392c.045.03.091.06.139.085.04-.08.08-.162.116-.248 1.029-2.481 2.078-6.258 2.078-11.337 0-.28-.004-.553-.01-.824"/><path id="lm25f" d="M1160.716 2337.026l-10.646 7.39c.155.163.328.314.523.449l12.128 8.419a32.572 32.572 0 0 0 .274-2.809l.014-.28a35.372 35.372 0 0 0 .04-1.67c0-5.08-1.05-8.855-2.078-11.337a3.43 3.43 0 0 0-.116-.248 1.591 1.591 0 0 0-.14.086"/><path id="lm25g" d="M1163.034 2347.706a36.524 36.524 0 0 0-.03-.845l-.013-.279-.013-.2-.026-.412a33.955 33.955 0 0 0-.236-2.2l-6.856 4.76 6.856 4.759c.07-.495.13-1.007.18-1.537l.022-.248.034-.414.013-.206.026-.404.014-.28c.005-.112.008-.225.012-.337.004-.088.008-.173.01-.261a48.699 48.699 0 0 0 .018-1.072c0-.28-.005-.553-.01-.824"/><path id="lm25h" d="M1160.714 2337.032c.045-.03.092-.06.139-.085.041.08.08.162.116.248-.814-1.964-3.261-2.673-5.018-1.453l-5.394 3.744a3.283 3.283 0 0 0-.489 4.936z"/><path id="lm25i" d="M1163.034 2349.354"/><path id="lm25j" d="M1162.72 2353.29v-.001"/><path id="lm25k" d="M1163.008 2350.197"/><path id="lm25l" d="M1162.898 2351.748l.023-.248-.023.248"/><path id="lm25m" d="M1162.95 2351.09"/><path id="lm25n" d="M1162.92 2345.557a26.87 26.87 0 0 0-.022-.247l.023.247"/><path id="lm25o" d="M1162.99 2346.581"/><path id="lm25p" d="M1163.045 2348.534"/><path id="lm25q" d="M1160.968 2359.87"/><path id="lm25r" d="M1163.031 2347.457"/><path id="lm25s" d="M1160.714 2360.03l-10.646-7.39a3.283 3.283 0 0 0 .524 4.96l5.36 3.722c1.681 1.166 3.991.567 4.901-1.206a1.552 1.552 0 0 1-.139-.085"/><path id="lm25t" d="M1216.876 2349.039l-1.782-2.957h1.305l1.092 1.85 1.14-1.85h1.298l-1.83 2.957v1.816h-1.223zm-4.077-.096l-.587-1.604-.594 1.604zm-1.188-2.86h1.202l1.928 4.772h-1.25l-.388-.983h-1.782l-.387.983h-1.257zm-4.73 2.328c.244 0 .436-.05.577-.15.14-.1.21-.274.21-.52 0-.245-.069-.414-.207-.505-.138-.09-.331-.136-.58-.136h-.711v1.31zm-1.934-2.329h2.128c.561 0 1.01.146 1.346.437.337.292.505.699.505 1.222 0 .538-.167.953-.501 1.247-.334.293-.784.44-1.35.44h-.905v1.427h-1.223zm-8.551 0h1.208l1.776 2.84v-2.84h1.223v4.773h-1.202l-1.783-2.847v2.847h-1.222zm-3.722 2.861l-.587-1.604-.595 1.604zm-1.188-2.86h1.201l1.928 4.772h-1.25l-.387-.983h-1.783l-.387.983h-1.257zm-6.315 4.789a2.712 2.712 0 0 1-.74-.236v-1.085c.25.127.508.223.778.287.269.063.526.095.77.095.226 0 .396-.034.511-.102a.323.323 0 0 0 .173-.294.365.365 0 0 0-.093-.25.878.878 0 0 0-.273-.193 9.85 9.85 0 0 0-.56-.246c-.446-.187-.771-.394-.974-.622a1.215 1.215 0 0 1-.304-.84c0-.272.077-.516.232-.73.154-.214.37-.38.646-.499.276-.118.594-.177.953-.177.294 0 .557.023.787.068.23.046.452.119.663.219v1.058a2.642 2.642 0 0 0-1.222-.314c-.221 0-.397.035-.529.106-.13.07-.196.172-.196.304 0 .131.066.239.2.32.133.082.38.194.739.335.327.132.582.262.763.39.182.127.315.275.398.443.083.169.124.382.124.642 0 .442-.162.786-.487 1.034-.325.249-.81.373-1.454.373-.304 0-.606-.03-.905-.086m-4.389-1.212c.203-.109.364-.266.484-.47.12-.206.18-.445.18-.718 0-.273-.06-.51-.177-.714a1.237 1.237 0 0 0-.48-.47 1.382 1.382 0 0 0-.677-.168c-.253 0-.481.056-.684.168a1.234 1.234 0 0 0-.48.47c-.117.203-.176.441-.176.714 0 .273.059.512.176.717a1.2 1.2 0 0 0 .484.471c.205.11.432.164.68.164.244 0 .468-.054.67-.164m-1.993.983a2.374 2.374 0 0 1-.932-.877 2.444 2.444 0 0 1-.342-1.294c0-.487.114-.92.342-1.297a2.37 2.37 0 0 1 .932-.88c.394-.21.835-.315 1.323-.315.484 0 .923.105 1.316.314.394.21.704.503.93.88.225.378.338.811.338 1.298s-.113.919-.339 1.294a2.35 2.35 0 0 1-.929.877c-.393.21-.832.315-1.316.315-.488 0-.929-.105-1.323-.315m-5.014-2.3c.244 0 .433-.047.566-.14.134-.094.2-.254.2-.482 0-.237-.065-.4-.196-.488-.132-.09-.321-.133-.57-.133h-.732v1.242zm-1.955-2.26h2.17c.565 0 1.009.14 1.329.422.32.283.48.688.48 1.216 0 .355-.079.658-.235.908-.157.25-.377.437-.663.56l.856 1.666h-1.257l-.767-1.495h-.69v1.495h-1.223z"/></defs><g><g transform="translate(-1140 -2335)"><g><use fill="#52439a" xlink:href="#lm25a"/></g><g><use fill="#ec4b23" xlink:href="#lm25b"/></g><g><use fill="#6fcbdc" xlink:href="#lm25c"/></g><g><use fill="#6fcbdc" xlink:href="#lm25d"/></g><g><use fill="#f5881f" xlink:href="#lm25e"/></g><g><use fill="#f5881f" xlink:href="#lm25f"/></g><g><use fill="#f9d009" xlink:href="#lm25g"/></g><g><use fill="#4d87c6" xlink:href="#lm25h"/></g><g><use fill="#4d72b7" xlink:href="#lm25i"/></g><g><use fill="#4d72b7" xlink:href="#lm25j"/></g><g><use fill="#4d72b7" xlink:href="#lm25k"/></g><g><use fill="#4d72b7" xlink:href="#lm25l"/></g><g><use fill="#4d72b7" xlink:href="#lm25m"/></g><g><use fill="#4d72b7" xlink:href="#lm25n"/></g><g><use fill="#4d72b7" xlink:href="#lm25o"/></g><g><use fill="#4d72b7" xlink:href="#lm25p"/></g><g><use fill="#4d72b7" xlink:href="#lm25q"/></g><g><use fill="#4d72b7" xlink:href="#lm25r"/></g><g><use fill="#4d87c6" xlink:href="#lm25s"/></g><g><use fill="#fff" xlink:href="#lm25t"/></g></g></g></svg>