<?xml version="1.0" encoding="UTF-8"?><!DOCTYPE svg PUBLIC "-//W3C//DTD SVG 1.1//EN" "http://www.w3.org/Graphics/SVG/1.1/DTD/svg11.dtd"><svg xmlns="http://www.w3.org/2000/svg" xmlns:xlink="http://www.w3.org/1999/xlink"><defs>
        <path id="a" d="M1102.657 23.506c0 .682.971.682.971 0 0-.683-.97-.683-.97 0zm-7.285 0c0 .682.971.682.971 0 0-.683-.971-.683-.971 0zm11.519-2.495l-1.483 6.09c-.27 1.107-1.241 1.886-2.356 1.886h-7.104c-1.115 0-2.086-.78-2.356-1.886l-1.483-6.09zM1095.948 30h7.104c1.559.001 2.92-1.09 3.301-2.65l1.632-6.72a.527.527 0 0 0-.09-.44.48.48 0 0 0-.381-.192h-3.266l-.045-.186-1.317-5.424a.486.486 0 0 0-.591-.365.512.512 0 0 0-.352.623l1.305 5.352h-7.496l.073-.3 1.231-5.063a.508.508 0 0 0-.35-.62.485.485 0 0 0-.591.362l-1.363 5.62h-3.266a.48.48 0 0 0-.38.192.528.528 0 0 0-.091.441l1.632 6.72c.38 1.56 1.742 2.651 3.301 2.65z"/>
    </defs><symbol id="icon-basket" viewBox="0 0 17 16">
    
    <use xlink:href="#a" transform="translate(-1091 -14)"/>
</symbol><symbol id="icon-building" viewBox="0 0 45 42">
    <path d="M37 32.8c-.6 0-1.1-.5-1.1-1.1V12.6c0-.6.5-1.1 1.1-1.1.6 0 1.1.5 1.1 1.1v19.1c0 .6-.5 1.1-1.1 1.1zm-5.8 0c-.6 0-1.1-.5-1.1-1.1V12.6c0-.6.5-1.1 1.1-1.1.6 0 1.1.5 1.1 1.1v19.1c0 .6-.5 1.1-1.1 1.1zm-5.8 0c-.6 0-1.1-.5-1.1-1.1V12.6c0-.6.5-1.1 1.1-1.1.6 0 1.1.5 1.1 1.1v19.1c0 .6-.5 1.1-1.1 1.1zm-5.8 0c-.6 0-1.1-.5-1.1-1.1V12.6c0-.6.5-1.1 1.1-1.1.6 0 1.1.5 1.1 1.1v19.1c.1.6-.5 1.1-1.1 1.1zm-5.8 0c-.6 0-1.1-.5-1.1-1.1V12.6c0-.6.5-1.1 1.1-1.1.6 0 1.1.5 1.1 1.1v19.1c.1.6-.4 1.1-1.1 1.1zm-5.8 0c-.6 0-1.1-.5-1.1-1.1V12.6c0-.6.5-1.1 1.1-1.1.6 0 1.1.5 1.1 1.1v19.1c.1.6-.4 1.1-1.1 1.1zm31.8-23H5.3c-.6 0-1.1-.5-1.1-1.1 0-.5.3-.9.7-1L22.2.2c.3-.1.6-.1.9 0l17.2 7.4c.6.2.9.8.7 1.4-.3.5-.7.8-1.2.8zm-29-2.3h23.5L22.5 2.4 10.8 7.5zM5 37.3c-.6 0-1.2-.5-1.2-1.1 0-.6.5-1.2 1.1-1.2H40c.6 0 1.2.4 1.2 1.1s-.4 1.2-1.1 1.2H5zM43.9 42H1.2C.6 42 0 41.5 0 40.9c0-.6.5-1.2 1.1-1.2H43.9c.6 0 1.2.5 1.2 1.1 0 .6-.5 1.2-1.1 1.2h-.1z"/>
</symbol><symbol id="icon-card" viewBox="0 0 52 36">
    <style>
        .st0{fill:#fff}
    </style>
    <g transform="translate(-353 -627)">
        <path id="ii5za" class="st0" d="M402.6 635.4h-47.2v-1.1c0-2.7 2.2-4.8 4.8-4.8h37.6c1.3 0 2.5.5 3.4 1.4.9.9 1.4 2.1 1.4 3.4v1.1zm0 6.9h-47.2v-4.6h47.2v4.6zm0 13.4c0 1.3-.5 2.5-1.4 3.4-.9.9-2.1 1.4-3.4 1.4h-37.6c-2.7 0-4.8-2.2-4.8-4.8v-11h47.2v11zm2.4 0v-21.5c0-4-3.2-7.3-7.2-7.3h-37.6c-4 0-7.2 3.2-7.2 7.3v21.5c0 4 3.2 7.3 7.2 7.3h37.6c4 0 7.2-3.2 7.2-7.3z"/>
    </g>
</symbol><symbol id="icon-facebook" viewBox="0 0 10 19">
    <title>
        facebook
    </title>
    <path d="M9.766.157v2.946H8.014c-.64 0-1.071.134-1.295.402-.223.268-.335.67-.335 1.205v2.11h3.27l-.435 3.303H6.384v8.471H2.97v-8.47H.123V6.82H2.97V4.387c0-1.384.387-2.457 1.161-3.22C4.904.404 5.934.023 7.222.023c1.093 0 1.941.045 2.544.134z" fill-rule="evenodd"/>
</symbol><symbol id="icon-globe" viewBox="0 0 35 35">
    <path d="M10.1 27.8c.2.6.5 1.2.8 1.8.6 1.2 1.3 2.2 2.1 3.1-2.9-.9-5.5-2.6-7.5-4.9h4.6zm6.6 5.5c-1.6-.4-3.2-1.9-4.4-4.4-.2-.4-.4-.7-.5-1.1h4.9v5.5zm6.5-5.5c-.2.4-.3.8-.5 1.1-1.2 2.5-2.8 4-4.4 4.4v-5.5h4.9zm6.4 0c-2 2.3-4.6 4-7.5 4.9.8-.8 1.5-1.9 2.1-3.1.3-.6.6-1.2.8-1.8h4.6zm-21-6.3c.2 1.7.5 3.3 1 4.8H4.3c-1-1.5-1.7-3.1-2.1-4.8h6.4zm8.1 4.8h-5.5c-.5-1.6-.8-3.2-1-4.8h6.5v4.8zm8.1-4.8c-.2 1.6-.5 3.2-1 4.8h-5.5v-4.8h6.5zm8.1 0c-.4 1.7-1.1 3.3-2.1 4.8h-5.3c.4-1.5.8-3.1 1-4.8h6.4zm-24.5-4c0 .8 0 1.6.1 2.4H1.8c-.1-.8-.2-1.6-.2-2.4 0-.8.1-1.6.2-2.4h6.7c-.1.8-.1 1.6-.1 2.4zm8.3 2.4H10c-.1-.8-.1-1.6-.1-2.4 0-.8 0-1.6.1-2.4h6.7v4.8zm8.4-2.4c0 .8 0 1.6-.1 2.4h-6.7v-4.8H25c0 .8.1 1.6.1 2.4zm8.3 0c0 .8-.1 1.6-.2 2.4h-6.7c.1-.8.1-1.6.1-2.4 0-.8 0-1.6-.1-2.4h6.7c.1.8.2 1.6.2 2.4zM9.5 8.8c-.4 1.5-.7 3.1-.9 4.8H2.1c.4-1.7 1.2-3.3 2.1-4.8h5.3zm7.2 4.7h-6.5c.2-1.6.5-3.2 1-4.8h5.5v4.8zm7.1-4.7c.5 1.6.8 3.2 1 4.8h-6.5V8.8h5.5zm7 0c1 1.5 1.7 3.1 2.1 4.8h-6.5c-.2-1.7-.5-3.3-.9-4.8h5.3zM12.9 2.3zm0 0c-.8.8-1.5 1.9-2.1 3.1-.3.6-.6 1.2-.8 1.8H5.4c2-2.3 4.6-4 7.5-4.9zm9.2 0c2.9.9 5.5 2.6 7.5 4.9H25c-.2-.6-.5-1.2-.8-1.8-.6-1.2-1.3-2.3-2.1-3.1zm-5.4 4.9h-4.9c.2-.4.3-.8.5-1.1 1.2-2.5 2.8-4 4.4-4.3v5.4zm1.6-5.5c1.6.4 3.2 1.9 4.4 4.3.2.4.3.7.5 1.1h-4.9V1.7zM0 17.5C0 27.2 7.8 35 17.5 35S35 27.2 35 17.5 27.2 0 17.5 0 0 7.8 0 17.5z"/>
</symbol><symbol id="icon-like" viewBox="0 0 10 8">
    <path d="M4.14 7.653l.503.298A.345.345 0 0 0 4.821 8h.358a.342.342 0 0 0 .178-.05c.15-.09.318-.19.503-.297C7.507 6.672 10 5.2 10 3.301 10 1.204 8.962 0 7.15 0 6.014 0 5.349.723 5 1.297 4.643.723 3.986 0 2.85 0 1.042 0 0 1.202 0 3.3c.005 1.906 2.496 3.378 4.14 4.353z"/>
</symbol><symbol id="icon-money" viewBox="0 0 42 37">
    <path d="M19.4 17.6h.7v-5.1h-.7c-1.4 0-2.5 1.2-2.5 2.5 0 1.4 1.2 2.6 2.5 2.6zm2.5 6.9h.7c1.4 0 2.5-1.2 2.5-2.5 0-1.4-1.1-2.6-2.5-2.6h-.7v5.1zm-1.8 1.8H17c-.5 0-.9-.4-.9-.9s.4-.9.9-.9h3.1v-5.1h-.7c-2.4 0-4.3-2-4.3-4.4 0-2.4 1.9-4.4 4.3-4.4h.7V8.2c0-.5.4-.9.9-.9s.9.4.9.9v2.4h3c.5 0 .9.4.9.9s-.4.9-.9.9h-3v5.2h.7c2.4 0 4.3 2 4.3 4.4s-1.9 4.4-4.3 4.4h-.7v2.5c0 .5-.4.9-.9.9s-.9-.4-.9-.9v-2.6zm21.7-7.5c.3.3.3.9-.1 1.3-.1.2-.4.3-.6.3-.2 0-.4-.1-.6-.3L39 18.6C39 28.8 30.9 37 20.9 37c-.5 0-.9-.4-.9-.9s.4-.9.9-.9c9 0 16.3-7.5 16.3-16.6l-1.5 1.5c-.1.2-.4.3-.6.3-.2 0-.4-.1-.6-.3-.3-.4-.3-1 0-1.3l3-3.1c.4-.3.9-.3 1.3 0l3 3.1zM11.9 32.2c.4.3.5.9.3 1.3-.2.2-.5.4-.8.4-.2 0-.4 0-.5-.1-.4-.3-.5-.8-.2-1.3s.8-.6 1.2-.3zm-4.7-4.9c.2.4.1 1-.3 1.2-.1.1-.3.1-.5.1-.3 0-.6-.2-.8-.4-.3-.4-.1-1 .3-1.2.5-.3 1-.1 1.3.3zM8 30c.4-.4.9-.3 1.2 0 .4.4.4 1 0 1.3-.2.1-.4.2-.6.2-.3 0-.5-.1-.7-.3-.2-.3-.2-.9.1-1.2zm10.1 4.8c.5.1.8.6.7 1-.1.5-.5.8-.9.8h-.1c-.5-.1-.8-.6-.7-1.1.1-.4.6-.8 1-.7zm-3.2-.9c.5.2.7.7.4 1.2-.1.4-.5.6-.8.6h-.3c-.4-.2-.7-.7-.5-1.2.2-.6.7-.8 1.2-.6zM27.6 3.3c-.5-.2-.7-.8-.5-1.2.2-.5.7-.7 1.2-.5.5.2.7.7.5 1.2-.1.3-.5.5-.8.5-.1.1-.2 0-.4 0zm7.5 6.7c-.2-.4-.1-1 .3-1.3.4-.2 1-.1 1.2.3.2.4.1 1-.3 1.3-.1.1-.3.1-.5.1-.3.1-.6-.1-.7-.4zM5.7 24.2c.2.4 0 1-.5 1.1h-.3c-.4 0-.7-.2-.8-.6-.2-.5 0-1 .5-1.1.5-.1.9.1 1.1.6zm30.8-11c-.2-.4.1-1 .6-1.2.5-.1 1 .1 1.1.6.1.5-.1 1-.6 1.2-.1.1-.2.1-.3.1-.3-.1-.6-.4-.8-.7zm-3.4-5.9c-.3-.4-.3-1 0-1.3.4-.3.9-.3 1.3 0 .3.4.3 1 0 1.3-.2.1-.4.2-.6.2-.3.1-.6-.1-.7-.2zm-2.7-3.6c.3-.4.8-.5 1.2-.2.4.3.5.8.2 1.2-.2.2-.4.4-.7.4-.2 0-.4-.1-.5-.2-.5-.2-.6-.8-.2-1.2zm-6-1.5c-.5-.1-.8-.6-.7-1.1.1-.5.5-.8 1-.7h.1c.5.1.8.6.7 1.1 0 .4-.4.7-.9.7h-.2zm-16.9 16l-3 3.1c-.2.2-.4.3-.6.3-.2 0-.5-.1-.6-.3l-3-3.1c-.3-.3-.3-.9 0-1.3.3-.3.9-.3 1.3 0l1.5 1.5C3.1 8.2 11.2 0 21.2 0c.5 0 .9.4.9.9v.2c-.1.4-.4.7-.8.7C12.3 1.8 5 9.3 5 18.4l1.5-1.5c.3-.3.9-.3 1.3 0 .1.4.1 1-.3 1.3z"/>
</symbol><symbol id="icon-next-arrow" viewBox="0 0 10 16">
    <path d="M-.501 1.253L1.22-.524l8.234 8.5-8.234 8.5-1.721-1.777 6.526-6.723z"/>
</symbol><symbol id="icon-prev-arrow" viewBox="0 0 10 16">
    <path d="M9.454 1.253L7.733-.524l-8.234 8.5 8.234 8.5 1.721-1.777-6.526-6.723z"/>
</symbol><symbol id="icon-search" viewBox="0 0 12 12">
    <path class="st0" d="M4.9 8.9C2.7 8.9 1 7.2 1 5s1.7-3.9 3.9-3.9S8.8 2.8 8.8 5c.1 2.1-1.7 3.9-3.9 3.9zm4-1.1c.6-.8.9-1.8.9-2.9C9.8 2.2 7.6 0 4.9 0S0 2.2 0 4.9s2.2 4.9 4.9 4.9c1 0 2.1-.3 2.9-.9l.2-.2 3.1 3.1c.1.1.2.1.3.1.1 0 .2 0 .3-.1.2-.2.2-.5 0-.7L8.6 8l.3-.2z"/>
</symbol><symbol id="icon-shield" viewBox="0 0 38.7 45">
    <path class="st0" d="M19.7 41.2c-.2.1-.5.1-.7 0C5.7 34.4 3.3 20 3 12.1c0-.3.2-.6.4-.7L19 3.9c.2-.1.4-.1.6 0l15.6 7.5c.3.1.4.4.4.7-.2 7.9-2.7 22.3-15.9 29.1zM38.3 9.1L19.7.1c-.2-.1-.4-.1-.6 0L.5 9.1c-.3.1-.4.4-.4.7C.1 26.7 7 39.6 19.1 45c.1 0 .2.1.3.1.1 0 .2 0 .3-.1 12.1-5.4 19-18.2 19-35.2 0-.3-.2-.6-.4-.7z"/>
</symbol><symbol id="icon-touch" viewBox="0 0 29 44">
    <path d="M20.1 43.5c-.7.7-1.9.7-2.6 0-.4-.4-.5-.8-.5-1.4 0-.5.2-1 .5-1.4 10.4-10.2 10.5-27 .3-37.4l-.3-.3c-.7-.7-.7-1.9 0-2.6.7-.7 1.9-.7 2.6 0C25.8 6 29 13.7 29 21.7c.1 8.3-3.1 16-8.9 21.8zM9 37.4c-.4-.4-.5-.8-.5-1.4 0-.5.2-1 .5-1.4 7.2-7.1 7.2-18.5 0-25.6-.7-.7-.7-1.9 0-2.6.7-.7 1.9-.7 2.6 0 8.5 8.3 8.6 22 .3 30.5l-.3.3c-.7.9-1.9 1-2.6.2zm-8.4-6C.2 31 0 30.6 0 30c0-.5.2-1 .5-1.4 3.7-3.7 3.7-9.7 0-13.5-.7-.7-.7-1.9 0-2.6.7-.7 1.9-.7 2.6 0 5.1 5.1 5.1 13.6 0 18.7-.7.9-1.8.9-2.5.2z"/>
</symbol><symbol id="icon-track" viewBox="0 0 49 35">
    <path d="M46.7 18.7h-9.3v-7H43l3.3 5.4c.2.4.4 1.1.4 1.6zM16.2 28c-.6-3.2-3.7-5.2-6.9-4.5C7 24 5.2 25.8 4.8 28H2.4V2.3h25.7V28H16.2zm28 0c-.6-3.2-3.7-5.2-6.9-4.6-2.3.5-4.1 2.3-4.6 4.5h-2.5v-21h9.3c.2 0 .6.2.8.4l1.1 1.9h-4.3c-1.3 0-2.3 1-2.3 2.3v7c0 1.3 1 2.3 2.3 2.3h9.3v7c.3.2-1.2.2-2.2.2zM4.8 30.3c.6 3.2 3.7 5.2 6.9 4.5 2.3-.5 4.1-2.3 4.5-4.5h16.6c.6 3.2 3.7 5.2 6.9 4.5 2.3-.5 4.1-2.3 4.5-4.5h2.4c1.3 0 2.3-1 2.3-2.3v-9.3c0-.9-.3-2-.8-2.8l-5.8-9.7c-.5-.9-1.7-1.6-2.8-1.6h-9.3V2.3c0-1.3-1-2.3-2.3-2.3H2.2C.9 0-.1 1-.1 2.3V28c0 1.3 1.1 2.3 2.3 2.3h2.6z"/>
</symbol></svg>