<?xml version="1.0" encoding="UTF-8"?>
<svg width="341px" height="124px" viewBox="0 0 341 124" version="1.1" xmlns="http://www.w3.org/2000/svg" xmlns:xlink="http://www.w3.org/1999/xlink">
    <!-- Generator: Sketch 52.2 (67145) - http://www.bohemiancoding.com/sketch -->
    <title>Group 3</title>
    <desc>Created with Sketch.</desc>
    <defs>
        <path d="M109.452,73.128 L90.3,73.128 L90.3,51.12 L64.596,51.12 L64.596,73.128 L33.012,73.128 L84.42,2.4 L55.86,2.4 L0.42,76.992 L0.42,95.304 L63.756,95.304 L63.756,120 L90.3,120 L90.3,95.304 L109.452,95.304 Z M167.916,122.016 C196.98,122.016 218.316,100.008 218.316,61.2 C218.316,22.392 196.98,0.384 167.916,0.384 C139.02,0.384 117.516,22.392 117.516,61.2 C117.516,100.008 139.02,122.016 167.916,122.016 Z M167.916,99 C154.476,99 145.068,87.912 145.068,61.2 C145.068,34.488 154.476,23.4 167.916,23.4 C181.524,23.4 190.932,34.488 190.932,61.2 C190.932,87.912 181.524,99 167.916,99 Z M339.276,73.128 L320.124,73.128 L320.124,51.12 L294.42,51.12 L294.42,73.128 L262.836,73.128 L314.244,2.4 L285.684,2.4 L230.244,76.992 L230.244,95.304 L293.58,95.304 L293.58,120 L320.124,120 L320.124,95.304 L339.276,95.304 Z" id="path-1"></path>
    </defs>
    <g id="Page-1" stroke="none" stroke-width="1" fill="none" fill-rule="evenodd">
        <g id="404" transform="translate(-549.000000, -168.000000)">
            <g id="Group-3" transform="translate(550.000000, 169.000000)">
                <mask id="mask-2" fill="white">
                    <use xlink:href="#path-1"></use>
                </mask>
                <use id="Combined-Shape" stroke="#979797" fill="#D8D8D8" fill-rule="nonzero" xlink:href="#path-1"></use>
                <g id="logo-copy" mask="url(#mask-2)">
                    <g transform="translate(-93.000000, -148.000000)">
                        <path d="M486,284.999529 C486,179.941035 463.868612,101.831722 442.172209,50.5006287 C425.002014,9.87740343 373.397377,-4.77966825 336.344201,20.4513523 L29.9964078,229.038236 C-9.99880259,256.272352 -9.99880259,313.729555 29.9964078,340.963671 L336.344201,549.550555 C373.397377,574.778726 425.002014,560.121654 442.172209,519.501278 C463.868612,468.167335 486,390.058022 486,284.999529" id="Fill-1" fill="#52439A"></path>
                        <path d="M441.86711,46.2195461 C441.115383,44.4236045 440.277829,42.6972954 439.398841,41 C438.398512,41.548357 437.41002,42.1431357 436.448165,42.8046457 L122.97502,258.636795 C104.34166,271.466608 104.34166,298.533392 122.97502,311.360304 L436.448165,527.198256 C437.41002,527.856864 438.398512,528.451643 439.398841,529 C440.277829,527.305606 441.115383,525.576396 441.86711,523.780454 C463.714548,471.509557 486,391.974583 486,284.998549 C486,178.022515 463.714548,98.4904428 441.86711,46.2195461" id="Fill-4" fill="#EC4B23"></path>
                        <path d="M340.683047,18.5023784 L227.185858,96.2809845 C188.034841,123.835264 188.266504,180.961036 227.918968,208.134763 L483.088237,383 C487.366668,353.199603 490,320.309007 490,284.159395 C490,178.660554 467.921653,100.22385 446.271443,48.6747435 C429.143056,7.88410935 377.65526,-6.83153539 340.683047,18.5023784" id="Fill-6" fill="#6FCBDC"></path>
                        <path d="M223.927515,472.229036 L336.714307,549.517345 C373.682383,574.823301 425.145041,560.106078 442.272869,519.327583 C463.919441,467.78297 486,389.353104 486,283.86346 C486,247.705555 483.363822,214.806382 479.082598,185 L223.927515,359.847132 C184.024162,387.190153 184.024162,444.883154 223.927515,472.229036" id="Fill-9" fill="#6FCBDC"></path>
                        <path d="M488.774771,264.601215 C488.733282,262.855183 488.685865,261.120713 488.632522,259.392025 C488.508053,255.168592 488.339132,251.002975 488.143538,246.869156 C488.048705,244.914987 487.965726,242.949255 487.856075,241.015322 C487.616029,236.679148 487.328566,232.409463 487.017395,228.180248 C486.798093,225.248995 486.558047,222.34954 486.306146,219.46743 C486.155006,217.724288 485.994975,216.001382 485.83198,214.275585 C484.776962,203.151855 483.499678,192.375018 482.009019,182 L224.13993,358.661492 C219.990981,361.503131 216.295452,364.685882 213,368.111459 L439.381523,523.204824 C440.344672,523.863923 441.334493,524.456533 442.336168,525 C443.216338,523.311783 444.055019,521.588877 444.807757,519.799483 C466.684577,467.722038 489,388.477021 489,281.888094 C489,276.031369 488.905167,270.293166 488.774771,264.601215" id="Fill-11" fill="#F5881F"></path>
                        <path d="M440.378326,41.7982182 L214,196.8902 C217.2927,200.307393 220.98254,203.481739 225.122866,206.317836 L483.011533,383 C483.011533,382.997109 483.011533,382.994218 483.014496,382.991327 C484.502287,372.624108 485.77669,361.860818 486.828813,350.747714 C486.994781,349.01888 487.157786,347.290047 487.305973,345.538085 C487.557889,342.664405 487.797951,339.770488 488.014303,336.847661 C488.325494,332.632545 488.610012,328.379845 488.850074,324.060653 C488.959732,322.112101 489.04568,320.128857 489.140519,318.162959 C489.336125,314.025901 489.505058,309.854151 489.632498,305.62458 C489.685845,303.898637 489.733265,302.169804 489.774757,300.426515 C489.905161,294.734085 490,288.992507 490,283.132397 C490,176.534486 467.683139,97.2856806 445.804909,45.2009558 C445.052123,43.4114107 444.210425,41.6912502 443.333162,40 C442.328458,40.5464039 441.341537,41.1390643 440.378326,41.7982182" id="Fill-13" fill="#F5881F"></path>
                        <path d="M490.771488,264.289314 C490.729394,262.549813 490.681286,260.824713 490.627165,259.102492 C490.500883,254.894859 490.329499,250.744826 490.131055,246.626473 C490.034839,244.679614 489.950651,242.721237 489.839402,240.794538 C489.761227,239.380474 489.649978,238.00673 489.559776,236.607065 C489.379372,233.724218 489.201975,230.84137 488.988497,228.001722 C488.765999,225.084315 488.522453,222.198588 488.266881,219.32726 C488.113538,217.590639 487.951175,215.871299 487.785804,214.154838 C486.715408,203.072723 485.419507,192.336204 483.907121,182 L336,281.5 L483.913135,381 C483.913135,380.99712 483.913135,380.99136 483.913135,380.98848 C485.422514,370.666676 486.715408,359.947437 487.785804,348.876842 C487.951175,347.148861 488.116545,345.42664 488.269888,343.68138 C488.522453,340.818692 488.765999,337.941605 488.988497,335.027077 C489.093732,333.607253 489.174914,332.14999 489.274136,330.718646 C489.469574,327.922197 489.674032,325.137269 489.836395,322.288981 C489.947644,320.347883 490.034839,318.372225 490.131055,316.413847 C490.242304,314.092593 490.320479,311.72526 490.410681,309.378086 C490.479836,307.552187 490.573044,305.757967 490.630172,303.917668 C490.681286,302.204087 490.729394,300.481866 490.771488,298.753886 C490.903785,293.07747 491,287.354974 491,281.5144 C491,275.679586 490.903785,269.96285 490.771488,264.289314" id="Fill-15" fill="#F9D009"></path>
                        <path d="M440.614661,40.5712069 C441.570552,39.8978712 442.549971,39.2924598 443.547039,38.7343 C444.417634,40.4619375 445.252935,42.2191073 446,44.0471546 C428.817505,1.94595646 377.175902,-13.2454411 340.093243,12.9053803 L226.259949,93.1799852 C191.047894,118.681097 187.621395,168.711708 215.956923,199 L440.614661,40.5712069 Z" id="Fill-17" fill="#4D87C6"></path>
                    </g>
                </g>
            </g>
        </g>
    </g>
</svg>