<svg width="126" height="22" viewBox="0 0 126 22" xmlns="http://www.w3.org/2000/svg">
    <title>
        mastercard
    </title>
    <g fill="none" fill-rule="evenodd">
        <path d="M58.01 10.84c0 1.314.836 2.39 2.208 2.39 1.312 0 2.194-1.032 2.194-2.39 0-1.357-.883-2.39-2.194-2.39-1.372 0-2.208 1.077-2.208 2.39zm5.905 3.73h-1.586v-.905a2.736 2.736 0 0 1-2.3 1.095c-2.05 0-3.65-1.64-3.65-3.92 0-2.28 1.61-3.92 3.65-3.92a2.736 2.736 0 0 1 2.292 1.085v-.907h1.584v3.742l.01 3.73zm55.71-1.34c1.309 0 2.19-1.032 2.19-2.39 0-1.357-.88-2.39-2.19-2.39-1.37 0-2.206 1.077-2.206 2.39 0 1.31.835 2.39 2.205 2.39zm5.458.98v.12h.106a.1.1 0 0 0 .058 0 .052.052 0 0 0 .021-.044.052.052 0 0 0-.021-.044.1.1 0 0 0-.057 0l-.107-.032zm.106-.083a.19.19 0 0 1 .128.038c.03.026.047.064.046.104a.122.122 0 0 1-.037.092.167.167 0 0 1-.1.044l.14.169h-.11l-.131-.169h-.042v.169h-.092v-.444l.198-.003zm.113.57a.378.378 0 0 0 .215-.342.378.378 0 0 0-.215-.343.34.34 0 0 0-.14-.028.352.352 0 0 0-.143.028.382.382 0 0 0-.115.607.358.358 0 0 0 .398.078zm.042-.78a.482.482 0 0 1 0 .883.464.464 0 0 1-.518-.1.489.489 0 0 1-.103-.528c.074-.183.251-.3.444-.294h-.001c.061 0 .122.013.178.038zm-2.035.65h-1.585v-.904a2.736 2.736 0 0 1-2.3 1.094c-2.05 0-3.65-1.64-3.65-3.919s1.609-3.92 3.65-3.92a2.736 2.736 0 0 1 2.3 1.095V4.11h1.585v10.456zM83.563 8.371c-1.128 0-1.766.736-1.933 1.817h3.775c-.167-1.16-.82-1.816-1.842-1.817zm.02-1.454c2.041 0 3.459 1.593 3.459 3.919 0 .219-.015.421-.03.624h-5.41c.229 1.344 1.156 1.827 2.179 1.827a3.42 3.42 0 0 0 2.129-.78l.776 1.204a4.358 4.358 0 0 1-2.987 1.048c-2.179 0-3.734-1.547-3.734-3.92 0-2.326 1.498-3.92 3.627-3.92l-.01-.002zm21.341 6.312c1.312 0 2.194-1.032 2.194-2.39 0-1.357-.882-2.39-2.194-2.39-1.371 0-2.208 1.077-2.208 2.39 0 1.31.836 2.39 2.208 2.39zm3.694 1.33h-1.586v-.904a2.74 2.74 0 0 1-2.302 1.095c-2.053 0-3.654-1.64-3.654-3.92 0-2.28 1.61-3.92 3.654-3.92a2.74 2.74 0 0 1 2.302 1.094v-.907h1.586v7.463zm-14.847-3.726c0-2.264 1.54-3.92 3.885-3.92a3.755 3.755 0 0 1 2.62.892l-.76 1.313a3.15 3.15 0 0 0-1.905-.67c-1.263.015-2.194.954-2.194 2.388s.928 2.389 2.194 2.389a3.15 3.15 0 0 0 1.904-.67l.76 1.312a3.755 3.755 0 0 1-2.619.892c-2.345 0-3.885-1.656-3.885-3.92v-.006zm21.54-3.71l-.487 1.53a2.527 2.527 0 0 0-.992-.187c-1.037 0-1.554.674-1.554 1.921v4.185h-1.585V7.108h1.57v.907a2.137 2.137 0 0 1 1.92-1.095c.384.001.766.07 1.128.203zM71.06 9.015a4.615 4.615 0 0 0-2.273-.64c-.87 0-1.388.328-1.388.874 0 .498.551.639 1.236.733l.747.11c1.583.233 2.545.919 2.545 2.231 0 1.42-1.221 2.436-3.325 2.436a5.172 5.172 0 0 1-3.158-.97l.722-1.263a3.824 3.824 0 0 0 2.436.78c1.084 0 1.662-.33 1.662-.908 0-.42-.414-.654-1.282-.78l-.746-.109c-1.632-.233-2.515-.982-2.515-2.2 0-1.483 1.2-2.39 3.045-2.39a5.351 5.351 0 0 1 2.975.78l-.682 1.316zM92.17 6.92c.385.001.767.07 1.129.203l-.487 1.531a2.527 2.527 0 0 0-.992-.187c-1.037 0-1.554.674-1.554 1.921v4.185h-1.585V7.108h1.57v.907a2.137 2.137 0 0 1 1.92-1.095zm-13.52 1.673h-2.588v3.374c0 .748.261 1.246 1.052 1.246a2.874 2.874 0 0 0 1.403-.42l.456 1.39a3.657 3.657 0 0 1-1.98.576c-1.875 0-2.529-1.031-2.529-2.765V8.593h-1.479V7.109h1.48V4.845h1.6V7.11h2.589l-.004 1.484zm-25.278 5.98v-4.154c0-1.266-.547-1.967-1.6-1.967s-1.783.686-1.783 1.983v4.138H48.4v-4.154c0-1.266-.503-1.967-1.586-1.967-1.083 0-1.783.686-1.783 1.983v4.138h-1.6V7.1h1.585v.936a2.392 2.392 0 0 1 2.129-1.11 2.659 2.659 0 0 1 2.407 1.328 2.8 2.8 0 0 1 2.558-1.328c1.768.015 2.866 1.203 2.866 2.968v4.679l-1.603-.001z" fill="#FFF" fill-rule="nonzero"/>
        <path d="M13.03 19.567V2.42h9.555v17.147z" fill="#FF5F00"/>
        <path d="M13.639 11.002a10.88 10.88 0 0 1 4.17-8.57A10.927 10.927 0 0 0 3.042 3.606a10.891 10.891 0 0 0 0 14.793 10.926 10.926 0 0 0 14.767 1.176 10.88 10.88 0 0 1-4.17-8.574z" fill="#EB001B"/>
        <path d="M35.476 11c0 4.174-2.388 7.983-6.147 9.806a10.93 10.93 0 0 1-11.518-1.235 10.897 10.897 0 0 0 4.171-8.572c0-3.346-1.538-6.506-4.171-8.573a10.93 10.93 0 0 1 11.52-1.235A10.901 10.901 0 0 1 35.476 11z" fill="#F79E1B"/>
        <path d="M35.125 17.954v-.624h-.094l-.129.446-.128-.446h-.113v.624h.064v-.468l.12.406h.082l.12-.406v.472l.078-.004zm-.698 0v-.517h.144v-.103h-.358v.107h.144v.517l.07-.004z" fill="#F79E1B" fill-rule="nonzero"/>
    </g>
</svg>
